<svg width="466" height="112" viewBox="0 0 466 112" fill="none" xmlns="http://www.w3.org/2000/svg">
<path d="M21.8502 104.615C21.8502 104.837 21.3956 105.03 20.7171 105.136C20.3745 105.19 20.1046 105.46 20.0509 105.803C19.9445 106.481 19.7511 106.936 19.5295 106.936C19.3079 106.936 19.1146 106.481 19.0081 105.803C18.9544 105.46 18.6846 105.19 18.3419 105.136C17.6627 105.03 17.2072 104.837 17.2072 104.615C17.2072 104.392 17.6623 104.199 18.341 104.093C18.6841 104.039 18.9544 103.77 19.0082 103.426C19.1146 102.747 19.3079 102.293 19.5295 102.293C19.7511 102.293 19.9444 102.747 20.0508 103.426C20.1046 103.77 20.3749 104.039 20.7181 104.093C21.3963 104.199 21.8502 104.392 21.8502 104.615Z" fill="white"/>
<path d="M17.5538 48.8661C17.5538 49.0879 17.0994 49.2809 16.4208 49.388C16.0781 49.4413 15.8083 49.7112 15.7545 50.0535C15.6481 50.7325 15.4548 51.1867 15.2332 51.1867C15.0115 51.1867 14.8183 50.7325 14.7118 50.054C14.6581 49.7112 14.3882 49.4413 14.0455 49.388C13.3664 49.2809 12.9109 49.0879 12.9109 48.8661C12.9109 48.6433 13.366 48.4503 14.0447 48.3446C14.3877 48.2908 14.6581 48.0205 14.7119 47.6777C14.8183 46.9982 15.0115 46.544 15.2332 46.544C15.4548 46.544 15.6481 46.9982 15.7545 47.6777C15.8082 48.0205 16.0786 48.2908 16.4216 48.3446C17.0998 48.4503 17.5538 48.6433 17.5538 48.8661Z" fill="white"/>
<path d="M100.499 72.2299C100.499 72.4514 100.045 72.6448 99.3662 72.7511C99.0242 72.8048 98.7541 73.0749 98.7003 73.4173C98.5939 74.0959 98.4002 74.5505 98.1791 74.5505C97.9574 74.5505 97.7643 74.0959 97.6573 73.4173C97.6034 73.0749 97.3341 72.8048 96.9913 72.7511C96.3121 72.6448 95.8567 72.4514 95.8567 72.2299C95.8567 72.007 96.3114 71.8134 96.9906 71.7077C97.3334 71.6544 97.6034 71.3842 97.6573 71.0411C97.7643 70.3619 97.9574 69.9077 98.1791 69.9077C98.4002 69.9077 98.5939 70.3619 98.7003 71.0411C98.7541 71.3842 99.0242 71.6544 99.3676 71.7077C100.045 71.8134 100.499 72.007 100.499 72.2299Z" fill="white"/>
<path d="M78.9769 5.48958C78.9769 5.76549 78.4116 6.00617 77.5673 6.13812C77.1407 6.2056 76.8056 6.54074 76.7381 6.96735C76.6062 7.81158 76.3655 8.37689 76.0896 8.37689C75.8137 8.37689 75.5738 7.81158 75.441 6.96735C75.3743 6.54074 75.0384 6.2056 74.6118 6.13812C73.7676 6.00617 73.2008 5.76549 73.2008 5.48958C73.2008 5.21218 73.7668 4.97151 74.6111 4.8403C75.0377 4.77357 75.3743 4.43768 75.441 4.01107C75.5738 3.1661 75.8144 2.60078 76.0896 2.60078C76.3655 2.60078 76.6062 3.1661 76.7381 4.01107C76.8056 4.43768 77.1415 4.77357 77.5681 4.8403C78.4123 4.97151 78.9769 5.21293 78.9769 5.48958Z" fill="white"/>
<path d="M106.673 25.6206C106.673 26.0313 106.341 26.3639 105.93 26.3639C105.519 26.3639 105.187 26.0313 105.187 25.6206C105.187 25.2106 105.519 24.878 105.93 24.878C106.341 24.878 106.673 25.2106 106.673 25.6206Z" fill="white"/>
<path d="M106.957 85.2726C106.957 85.683 106.625 86.016 106.215 86.016C105.804 86.016 105.471 85.683 105.471 85.2726C105.471 84.8622 105.804 84.5296 106.215 84.5296C106.625 84.5296 106.957 84.8622 106.957 85.2726Z" fill="white"/>
<path d="M84.0469 97.6451C84.0469 98.0556 83.7141 98.3885 83.304 98.3885C82.8934 98.3885 82.5606 98.0556 82.5606 97.6451C82.5606 97.2346 82.8934 96.9021 83.304 96.9021C83.7141 96.9021 84.0469 97.2346 84.0469 97.6451Z" fill="white"/>
<path d="M7.49773 24.296C7.49773 24.7067 7.16495 25.0396 6.75451 25.0396C6.34401 25.0396 6.01129 24.7067 6.01129 24.296C6.01129 23.8854 6.34401 23.5531 6.75451 23.5531C7.16495 23.5531 7.49773 23.8854 7.49773 24.296Z" fill="white"/>
<path d="M88.9759 14.4372C88.9759 14.8476 88.6432 15.1809 88.2328 15.1809C87.8218 15.1809 87.4898 14.8476 87.4898 14.4372C87.4898 14.0268 87.8218 13.6941 88.2328 13.6941C88.6432 13.6941 88.9759 14.0268 88.9759 14.4372Z" fill="white"/>
<path d="M20.714 17.3379C20.714 17.7489 20.3814 18.0815 19.9709 18.0815C19.5604 18.0815 19.2276 17.7489 19.2276 17.3379C19.2276 16.9276 19.5604 16.595 19.9709 16.595C20.3814 16.595 20.714 16.9276 20.714 17.3379Z" fill="white"/>
<path d="M4.97236 100.65C4.97236 101.06 4.63959 101.393 4.22913 101.393C3.81866 101.393 3.4859 101.06 3.4859 100.65C3.4859 100.24 3.81866 99.9069 4.22913 99.9069C4.63959 99.9069 4.97236 100.24 4.97236 100.65Z" fill="white"/>
<path d="M94.2514 36.1453C94.2514 36.3569 94.0801 36.5275 93.8692 36.5275C93.6576 36.5275 93.487 36.3569 93.487 36.1453C93.487 35.9344 93.6576 35.7631 93.8692 35.7631C94.0801 35.7631 94.2514 35.9344 94.2514 36.1453Z" fill="white"/>
<path d="M92.74 108.432C92.74 108.643 92.5686 108.814 92.358 108.814C92.1468 108.814 91.9753 108.643 91.9753 108.432C91.9753 108.221 92.1468 108.05 92.358 108.05C92.5686 108.05 92.74 108.221 92.74 108.432Z" fill="white"/>
<path d="M51.6412 98.181C51.6412 98.392 51.4701 98.5632 51.259 98.5632C51.0475 98.5632 50.8768 98.392 50.8768 98.181C50.8768 97.9697 51.0475 97.7988 51.259 97.7988C51.4701 97.7988 51.6412 97.9697 51.6412 98.181Z" fill="white"/>
<path d="M10.2912 6.84772C10.2912 7.059 10.12 7.23035 9.90898 7.23035C9.69792 7.23035 9.52679 7.059 9.52679 6.84772C9.52679 6.63717 9.69792 6.46583 9.90898 6.46583C10.12 6.46583 10.2912 6.63717 10.2912 6.84772Z" fill="white"/>
<path d="M0.764464 38.7262C0.764464 38.9368 0.593333 39.1081 0.382259 39.1081C0.171184 39.1081 0 38.9368 0 38.7262C0 38.5145 0.171184 38.3437 0.382259 38.3437C0.593333 38.3437 0.764464 38.5145 0.764464 38.7262Z" fill="white"/>
<path d="M8.90976 89.8894C8.90976 90.1004 8.73862 90.2716 8.52753 90.2716C8.3164 90.2716 8.14529 90.1004 8.14529 89.8894C8.14529 89.6784 8.3164 89.5071 8.52753 89.5071C8.73862 89.5071 8.90976 89.6784 8.90976 89.8894Z" fill="white"/>
<path d="M99.6948 93.7249C99.6948 93.936 99.5232 94.1072 99.3127 94.1072C99.1016 94.1072 98.93 93.936 98.93 93.7249C98.93 93.5139 99.1016 93.3427 99.3127 93.3427C99.5232 93.3427 99.6948 93.5139 99.6948 93.7249Z" fill="white"/>
<path d="M79.4811 54.4711C79.4811 54.4711 81.7954 56.3394 82.6796 62.1218C83.5645 67.9047 85.255 77.3721 85.255 77.3721C85.255 77.3721 85.6701 87.0169 77.2337 86.9354C68.7967 86.8535 70.309 79.2337 70.309 79.2337L72.7438 60.7873L79.4811 54.4711Z" fill="white"/>
<path d="M77.934 56.9755H84.7889V86.4074H77.934" fill="#BDBDBD"/>
<path d="M77.3392 87.4455C77.302 87.4455 77.2648 87.4455 77.2281 87.4452C74.4608 87.4184 72.408 86.606 71.1272 85.0305C69.2019 82.6624 69.7493 79.45 69.8055 79.1527L72.2384 60.7207C72.275 60.4419 72.5313 60.246 72.8102 60.2826C73.089 60.3192 73.2855 60.5755 73.2489 60.8544L70.8141 79.3008C70.8123 79.3117 70.8105 79.3226 70.8086 79.3331C70.8025 79.3623 70.246 82.3379 71.9229 84.3935C73.0036 85.7185 74.7922 86.4021 77.2379 86.4259C79.3853 86.4432 81.1103 85.8004 82.3643 84.5056C84.7887 82.0036 84.7552 77.8276 84.746 77.425C84.6295 76.7703 83.0234 67.7398 82.1758 62.1993C81.3386 56.7287 79.1796 54.8834 79.1583 54.8657C78.9422 54.6869 78.9105 54.3666 79.0881 54.1499C79.265 53.9327 79.583 53.8985 79.8008 54.0749C79.9021 54.156 82.2789 56.1356 83.1833 62.0449C84.0571 67.7551 85.7395 77.1882 85.7565 77.2827C85.7602 77.3051 85.7626 77.3275 85.7639 77.3503C85.7724 77.5501 85.9414 82.2737 83.1009 85.2106C81.6663 86.694 79.7282 87.4455 77.3392 87.4455Z" fill="#232323"/>
<path d="M85.6285 73.5111C84.1317 74.2389 82.5859 74.7656 80.9826 75.0662C80.3048 75.1923 79.6053 75.1267 78.9653 74.8756C78.2052 74.5787 77.2833 74.2104 77.4828 74.2478L74.2004 67.6482L71.7322 62.6862L78.2832 59.2911L80.5074 58.451C81.1659 58.2038 81.9007 58.2664 82.5072 58.6202L83.4254 59.1598C84.2333 59.6331 84.8132 60.4156 85.0306 61.3269L85.5325 63.4424L85.5374 63.46L87.1513 70.2569C87.4611 71.5647 86.836 72.9237 85.6285 73.5111Z" fill="white"/>
<path d="M80.3035 74.6192C79.9104 74.6192 79.5191 74.5458 79.15 74.4014C78.598 74.185 78.2591 74.0477 78.0508 73.9614C77.9738 73.3468 77.8851 72.726 77.7852 72.0985C78.3016 71.4665 78.5185 70.6155 78.3188 69.7793L77.9873 68.3849C77.9454 68.2089 77.8857 68.039 77.8105 67.8773C78.4938 68.3187 79.1568 68.5042 79.7884 68.5042C82.3356 68.5042 84.3708 65.4918 85.1681 64.1144L86.6549 70.3752C86.9106 71.4502 86.385 72.5762 85.4053 73.0525C83.9253 73.7721 82.4052 74.2808 80.8882 74.5648C80.6942 74.6012 80.4988 74.6192 80.3035 74.6192Z" fill="#BDBDBD"/>
<path d="M77.0163 71.1377C78.847 81.4732 77.8153 91.0725 72.0932 99.4724C70.8672 101.273 68.8481 102.39 66.6685 102.43C65.0226 102.46 63.3535 102.173 61.6632 101.565H61.6614C60.7202 101.227 59.7702 100.789 58.8131 100.25C58.5335 100.093 58.254 99.928 57.9732 99.7534C57.4354 105.218 51.5571 106.945 49.6304 101.563C49.5125 101.232 49.4183 100.896 49.3472 100.554C49.0914 99.3123 49.1459 98.0189 49.477 96.7855L51.1158 90.6685L51.2402 90.204L43.2336 90.382L41.4543 91.9246L36.3854 99.138C35.7093 100.101 34.6792 100.77 33.5172 100.944C32.9104 101.035 32.1846 101.051 31.3481 100.91C29.6901 100.632 28.1829 99.7714 27.0495 98.5295C25.8093 97.1718 24.5995 95.8124 23.6529 94.414C21.6728 91.4907 20.8451 88.407 23.306 84.8664C23.306 84.8664 26.3914 81.1905 31.6097 85.1049L34.8123 81.3291C34.5296 81.3933 34.2449 81.445 33.9636 81.4858H33.9619C30.6241 81.9679 27.4765 80.8079 26.7097 77.6818C26.4267 76.5324 26.4658 75.1159 26.9373 73.4185C27.2791 72.1892 28.1099 71.1322 29.2542 70.5666C30.1026 70.1466 31.1864 69.9543 32.4105 70.5292C32.4105 70.5292 34.5456 67.8087 36.8587 72.5273C38.8871 73.1215 40.7126 72.8457 42.3744 71.8634C39.4259 66.1113 37.5097 60.7613 41.3959 57.6738L72.7447 45.6357L82.6909 49.7757L83.0179 49.9131C83.0179 49.9131 81.2511 57.5263 74.9646 62.6863C75.3496 63.9567 75.6996 65.2165 76.0129 66.4687C76.408 68.0398 76.7444 69.5969 77.0163 71.1377Z" fill="white"/>
<path d="M55.8256 61.2162C53.4989 61.2162 51.3016 60.9048 49.4833 60.4716C49.8495 60.487 50.2178 60.4944 50.5878 60.4944C60.2953 60.4944 68.7775 55.1443 73.2409 47.2391L73.2239 47.5404C73.136 49.1038 72.7586 50.6421 72.0645 52.0458C68.5258 59.1988 61.7522 61.2162 55.8256 61.2162Z" fill="#BDBDBD"/>
<path d="M66.4449 101.837C65.3172 101.837 64.172 101.679 63.015 101.365C63.7044 100.915 63.3752 99.865 62.9925 99.0835C63.019 99.0802 63.0449 99.0703 63.0685 99.0543C63.1501 98.9983 63.1709 98.8868 63.1152 98.8049L63.1084 98.7958C62.6374 98.1074 62.1653 97.4551 61.7765 96.7474C61.6662 96.5802 61.5891 96.3913 61.49 96.2177C61.3955 96.0406 61.2976 95.8667 61.2143 95.6836C61.1276 95.5028 61.0314 95.3272 60.9464 95.1457L60.696 94.5977C60.4782 94.0836 60.2982 93.5529 60.1519 93.013C62.4686 94.9317 64.5986 95.7665 66.4387 95.7665C72.4492 95.7665 75.3799 86.8688 71.7323 77.8043C70.2202 80.3202 67.4004 81.329 67.4004 81.329L54.3845 83.1813L52.1504 81.541C57.5476 80.9002 62.2936 80.1096 66.5957 79.1365C66.6407 79.1263 66.684 79.11 66.7245 79.0883C67.7532 78.5361 68.7087 77.6993 69.5646 76.6005C70.075 75.9454 70.3457 75.1572 70.3463 74.3475C70.3491 74.3475 70.3525 74.3475 70.3553 74.3472C72.506 74.2779 74.6354 73.792 76.6882 72.9028C78.2008 83.2843 76.5138 91.9282 71.6028 99.1376C70.4768 100.791 68.6283 101.799 66.6587 101.835C66.5872 101.836 66.5163 101.837 66.4449 101.837Z" fill="#BDBDBD"/>
<path d="M75.9861 34.5012C75.9861 48.5288 64.6155 59.8997 50.5882 59.8997C36.5608 59.8997 25.1897 48.5288 25.1897 34.5012C25.1897 20.4743 36.5608 9.10305 50.5882 9.10305C64.6155 9.10305 75.9861 20.4743 75.9861 34.5012Z" fill="white"/>
<path d="M50.5881 59.3055C47.5646 59.3055 44.6647 58.7612 41.983 57.7664C41.9921 57.709 41.9928 57.6502 41.9847 57.5921C43.3237 57.7891 44.7208 57.887 46.1464 57.887C50.7464 57.887 55.6417 56.8674 59.8209 54.8635C64.2223 52.7537 69.7625 48.6793 71.6329 41.1625C72.2519 41.5359 72.9265 41.7365 73.6378 41.7365C73.6982 41.7365 73.7593 41.7351 73.8197 41.7323C73.9779 41.7247 74.1347 41.708 74.2895 41.6823C74.2694 41.7948 74.2493 41.9058 74.2277 42.0182C71.036 52.0313 61.6455 59.3055 50.5881 59.3055ZM68.9075 27.4941C68.6965 27.093 68.4724 26.703 68.2357 26.324C67.3037 20.568 64.4361 15.4587 60.3227 11.6882C66.2731 14.2366 71.0319 19.0474 73.5136 25.0325C73.2381 24.9749 72.9584 24.9458 72.6759 24.9458C72.6142 24.9458 72.5517 24.9471 72.4893 24.9499C71.3976 25.002 70.426 25.4781 69.6799 26.3275C69.3864 26.662 69.1282 27.0534 68.9075 27.4941Z" fill="#BDBDBD"/>
<path d="M71.3572 40.2437C67.9961 56.5618 46.0451 60.4386 35.9899 55.2867C34.2411 54.6515 32.2281 52.2505 30.5456 49.8031C28.4951 46.8207 26.9349 43.7706 26.9349 43.7706C25.1896 34.5015 28.0392 27.0301 35.2826 21.7799C40.4231 18.0522 46.8979 16.7307 53.1553 17.8168C58.3266 18.7146 62.5304 20.6467 65.5448 23.6882C66.9829 25.139 68.1486 26.8451 69.0192 28.8091L71.3572 40.2437Z" fill="#232323"/>
<path d="M71.3574 40.2431C67.9962 56.5617 46.0453 60.4385 35.9901 55.2868C34.2413 54.6515 32.2283 52.2506 30.5457 49.8032C30.8118 49.2629 29.7935 48.6741 29.7935 48.6741C37.4946 56.5983 72.2663 50.6792 65.5451 23.6882C66.9837 25.1393 68.1488 26.8447 69.0198 28.8088L71.3574 40.2431Z" fill="#020202"/>
<path d="M50.5882 9.69767C36.9112 9.69767 25.7843 20.8242 25.7843 34.5015C25.7843 48.1781 36.9112 59.3053 50.5882 59.3053C64.2651 59.3053 75.3916 48.1781 75.3916 34.5015C75.3916 20.8242 64.2651 9.69767 50.5882 9.69767ZM50.5882 60.4941C36.2554 60.4941 24.5952 48.8338 24.5952 34.5015C24.5952 20.1685 36.2554 8.50824 50.5882 8.50824C64.9208 8.50824 76.5811 20.1685 76.5811 34.5015C76.5811 48.8338 64.9208 60.4941 50.5882 60.4941Z" fill="#232323"/>
<path d="M46.1464 57.8873C42.2813 57.8873 38.6248 57.1672 35.7746 55.7069C35.5425 55.5883 35.4511 55.3032 35.5697 55.0714C35.6886 54.8396 35.9734 54.7476 36.2054 54.8669C42.2062 57.9413 51.9662 57.5822 59.4129 54.0122C63.7616 51.9271 69.2708 47.8481 70.8756 40.2425L68.5667 28.9536C66.0046 23.2139 60.7932 19.6239 53.0739 18.2822C46.8399 17.199 40.4558 18.6126 35.5595 22.162C28.4289 27.3301 25.683 34.5714 27.3984 43.6832C27.4467 43.939 27.2782 44.1855 27.0216 44.2342C26.7652 44.2835 26.5188 44.1136 26.4706 43.8571C25.5865 39.1606 25.8641 34.8692 27.2965 31.1C28.7286 27.3314 31.3224 24.0665 35.0053 21.3972C40.1069 17.7 46.7512 16.2251 53.2355 17.3516C61.3055 18.7545 66.7607 22.545 69.45 28.6178C69.464 28.6491 69.4747 28.6811 69.4813 28.7144L71.8203 40.1485C71.8329 40.2112 71.8329 40.2758 71.8203 40.3384C70.1628 48.3837 64.3798 52.6779 59.8206 54.8636C55.6417 56.8674 50.7465 57.8873 46.1464 57.8873Z" fill="#232323"/>
<path d="M78.3418 33.0936C78.6937 37.4003 76.6563 41.0014 73.7912 41.138C70.9268 41.2746 68.9693 37.7217 68.6174 33.4156C68.2661 29.1095 69.6529 25.6804 72.5179 25.5438C75.3823 25.4072 77.99 28.7876 78.3418 33.0936Z" fill="white"/>
<path d="M73.6365 40.5471C71.8675 40.5471 70.547 38.7846 69.8147 36.4901C70.3129 36.7733 70.8568 36.9279 71.4398 36.9279C71.4937 36.9279 71.547 36.9261 71.6015 36.9238C72.3035 36.8906 72.9558 36.6489 73.5358 36.2401C73.569 37.1726 73.931 38.0814 74.5856 38.8285C74.569 39.3581 74.5311 39.8884 74.4713 40.4204C74.2402 40.4909 74.0038 40.5323 73.7633 40.5442C73.7207 40.546 73.6786 40.5471 73.6365 40.5471ZM76.0549 31.5841C76.1911 30.7357 76.2285 29.8246 76.1514 28.8796C76.1337 28.6646 76.1106 28.4525 76.0821 28.2427C76.4992 28.834 76.8582 29.5283 77.1373 30.2967C76.6929 30.6522 76.331 31.0823 76.0549 31.5841Z" fill="#BDBDBD"/>
<path d="M72.688 26.1345C72.6407 26.1345 72.5935 26.1351 72.5456 26.1376C71.7732 26.1744 71.1093 26.5026 70.5737 27.1125C69.4834 28.3531 68.987 30.6324 69.2104 33.367C69.5092 37.0268 71.1688 40.667 73.7629 40.5443C74.6231 40.5032 75.4324 40.0774 76.1042 39.3129C77.3356 37.9115 77.9504 35.6046 77.7491 33.1424C77.4295 29.2335 75.1753 26.1345 72.688 26.1345ZM73.6377 41.7364C70.7216 41.7364 68.4257 38.3735 68.025 33.4639C67.7759 30.4097 68.3784 27.8089 69.6804 26.3271C70.4264 25.478 71.3977 25.0019 72.4892 24.9497C75.6631 24.8025 78.5572 28.4304 78.9345 33.0455C79.1615 35.8224 78.4375 38.4594 76.9975 40.0976C76.1079 41.1106 75.009 41.6756 73.82 41.7321C73.7592 41.7345 73.6985 41.7364 73.6377 41.7364Z" fill="#232323"/>
<path d="M75.7109 40.9097C75.6738 40.9097 75.6367 40.9055 75.599 40.8964C73.3716 40.3267 71.7223 37.4014 71.3983 33.4432C71.0627 29.3301 72.3746 26.3202 74.74 25.7749C74.9814 25.7196 75.2227 25.8698 75.278 26.1111C75.334 26.3531 75.1832 26.5944 74.9419 26.6497C73.0354 27.0893 71.9959 29.727 72.2931 33.3703C72.5813 36.8853 73.999 39.5601 75.8215 40.0258C76.0616 40.0872 76.2069 40.3322 76.1449 40.5723C76.0933 40.7754 75.9109 40.9097 75.7109 40.9097Z" fill="#232323"/>
<path d="M32.6754 47.777C32.5558 47.777 32.4345 47.7237 32.3509 47.6032C30.8743 45.4789 29.9172 43.1808 29.5306 40.6919C28.5042 34.0887 31.5997 27.4564 37.3134 23.9922C40.0866 22.3098 43.1804 21.448 46.1588 21.448C47.8172 21.448 49.4402 21.7156 50.9508 22.2578C51.3294 22.3935 51.2996 22.9338 50.9089 23.0257C37.2561 26.2414 31.6626 34.5656 33.0777 47.3331C33.1072 47.6001 32.8942 47.777 32.6754 47.777Z" fill="#707070"/>
<path d="M62.9874 34.2051C62.4854 34.2051 62.0048 33.952 61.7116 33.5262L60.7602 32.1419C60.3922 31.6075 60.3928 30.8998 60.765 30.3677C61.3005 29.6004 62.0077 28.9941 63.0676 28.7204C63.1974 28.6868 63.3289 28.6708 63.4586 28.6708C63.9901 28.6708 64.4967 28.9422 64.7857 29.4087L65.6345 30.7788C65.8851 31.1846 65.9435 31.6854 65.7749 32.1319C65.3803 33.1747 64.5822 33.8665 63.3318 34.1644C63.2174 34.1921 63.1018 34.2051 62.9874 34.2051Z" fill="#707070"/>
<path d="M62.4472 42.2254C62.6398 41.1264 62.7664 40.0393 62.8157 38.9668C62.8763 37.6416 63.9731 36.6086 65.2891 36.6086C65.3189 36.6086 65.3481 36.6092 65.3779 36.6097C65.3952 36.6108 65.412 36.6113 65.4293 36.6124C64.7426 38.7119 63.7199 40.5788 62.4472 42.2254Z" fill="#707070"/>
<path d="M64.6612 45.5053C64.4935 45.5053 64.3236 45.4875 64.1537 45.4496C62.9189 45.1758 62.1154 43.9719 62.3546 42.7306C62.3865 42.5618 62.4179 42.3935 62.4471 42.2258C63.7197 40.5787 64.7424 38.7119 65.429 36.6125C66.7931 36.6882 67.8569 37.8575 67.7666 39.227C67.6638 40.7762 67.3786 42.3096 66.9116 43.8269C66.6005 44.8376 65.6769 45.5053 64.6612 45.5053Z" fill="#5A5A5A"/>
<path d="M25.6698 30.0839C25.6127 30.0839 25.555 30.0743 25.4979 30.0537C25.2302 29.9591 25.0902 29.6648 25.1853 29.3972C26.9048 24.5526 29.7752 20.7089 33.7163 17.9738C37.2227 15.5399 41.519 14.0787 46.1397 13.7473C56.6676 12.9914 66.9406 18.0198 71.1239 25.9734C71.2563 26.2244 71.1596 26.5352 70.9085 26.6676C70.6574 26.8 70.346 26.7026 70.2136 26.4515C66.2148 18.8492 56.3466 14.0471 46.2135 14.7729C36.5976 15.4624 29.2866 20.9182 26.1546 29.7416C26.0799 29.9522 25.8815 30.0839 25.6698 30.0839Z" fill="#232323"/>
<path d="M47.6254 60.199C47.3675 60.199 47.1572 59.9919 47.1534 59.733C47.1502 59.4724 47.359 59.2583 47.6195 59.2551C60.7093 59.0848 70.0181 52.25 72.5209 40.9728C72.577 40.7182 72.829 40.558 73.0836 40.6141C73.3383 40.6706 73.499 40.9226 73.4424 41.1773C72.1648 46.9352 69.072 51.737 64.4993 55.0636C59.9982 58.3385 54.1655 60.1141 47.6318 60.199H47.6254Z" fill="#232323"/>
<path d="M85.3848 40.427C85.118 40.7832 84.9368 41.1959 84.8722 41.6371C84.4099 44.7848 83.7924 47.5819 83.0185 50.0233C80.9991 49.7186 79.1323 49.2277 77.4424 48.5177C76.0119 47.9213 74.7074 47.1667 73.5438 46.242C74.4654 43.8024 75.0438 41.2815 75.1009 38.6353C73.0684 36.5308 74.2854 33.5346 76.0349 33.12C76.2695 31.9992 76.8106 31.1254 77.6875 30.524C78.4459 30.0027 79.3725 29.7942 80.2891 29.855C81.6072 29.9438 82.6908 30.2392 83.5665 30.6823C87.6339 32.7321 87.2442 37.9452 85.3848 40.427Z" fill="white"/>
<path d="M74.1518 46.0682C76.3979 47.7658 79.1894 48.8752 82.6623 49.451C83.3638 47.1477 83.9371 44.4968 84.3674 41.563C84.442 41.0524 84.6535 40.5543 84.9768 40.1215C86.0993 38.6223 86.7323 35.8097 85.6951 33.5487C84.822 31.6465 82.9409 30.5458 80.2552 30.3642C79.4132 30.3089 78.603 30.5135 77.9755 30.9438C77.2187 31.463 76.7468 32.2092 76.5335 33.2247C76.4931 33.4181 76.3444 33.5704 76.1523 33.6158C75.5012 33.7707 74.921 34.4155 74.6735 35.2587C74.3595 36.3314 74.6487 37.4333 75.467 38.2821C75.5615 38.3798 75.6125 38.511 75.61 38.6465C75.5578 41.0798 75.0802 43.5112 74.1518 46.0682ZM83.0187 50.533C82.9932 50.533 82.9677 50.5312 82.9422 50.5274C78.9885 49.9317 75.7201 48.624 73.2265 46.6409C73.053 46.5035 72.9884 46.2691 73.0667 46.062C74.0132 43.5566 74.5106 41.188 74.5852 38.8287C73.6338 37.7436 73.3011 36.3171 73.6954 34.9721C74.0076 33.9087 74.7382 33.0587 75.6051 32.7216C75.9029 31.5961 76.5049 30.7162 77.3991 30.1037C78.2143 29.5434 79.254 29.2741 80.3236 29.3475C84.2169 29.6099 85.8972 31.5457 86.621 33.1233C87.8361 35.7705 87.1241 38.9543 85.7927 40.7322C85.5701 41.0294 85.4264 41.3677 85.3761 41.711C84.9109 44.878 84.2816 47.7267 83.5037 50.1773C83.4359 50.3919 83.2375 50.533 83.0187 50.533Z" fill="#232323"/>
<path d="M75.9994 32.6536C77.0046 32.5487 78.0208 32.7673 78.9084 33.2328C79.1293 33.3522 79.3438 33.485 79.5496 33.6334C79.7519 33.787 79.9455 33.9563 80.1246 34.1435C80.4794 34.5192 80.7844 34.987 80.9061 35.5534C80.9652 35.8352 80.9705 36.1401 80.9009 36.4294C80.8371 36.7169 80.6934 36.9917 80.5351 37.1998C80.2586 37.6149 79.7635 38.0358 79.1722 38.114C78.8794 38.1622 78.5872 38.1053 78.3293 38.0149C78.0666 37.9233 77.8498 37.7645 77.6533 37.5992C77.2771 37.2485 77.011 36.8207 76.8521 36.3679C76.8197 36.2752 76.8684 36.1731 76.9617 36.1401C77.0423 36.1117 77.1292 36.1447 77.1727 36.2143L77.1744 36.2178C77.4034 36.5865 77.6858 36.9134 78.0197 37.1326C78.3495 37.3529 78.7275 37.4503 79.0388 37.3662C79.193 37.3181 79.3414 37.2555 79.4655 37.1337C79.4997 37.1105 79.5287 37.0763 79.5577 37.0427L79.6458 36.9447C79.698 36.863 79.76 36.7871 79.8093 36.7071C80.0157 36.3963 80.0533 36.0885 79.9733 35.7627C79.8899 35.4386 79.673 35.1192 79.4012 34.8421C79.1246 34.565 78.7895 34.3308 78.4301 34.1395C77.7066 33.7621 76.8823 33.5603 76.0707 33.5864H76.0625C75.804 33.5951 75.5877 33.3922 75.5796 33.1337C75.5715 32.8873 75.7576 32.6792 75.9994 32.6536Z" fill="#232323"/>
<path d="M80.5563 36.3394C80.897 36.5726 81.2758 36.7496 81.6709 36.8433C82.0649 36.9393 82.4751 36.9405 82.8521 36.8318C83.2291 36.7236 83.5692 36.5001 83.8308 36.1878C84.0942 35.876 84.2779 35.4857 84.4054 35.0713L84.4078 35.0628C84.4513 34.9214 84.5999 34.8423 84.7413 34.8858C84.876 34.9269 84.9546 35.0664 84.9225 35.2024C84.8102 35.6784 84.6283 36.1557 84.3202 36.5726C84.0163 36.9895 83.5759 37.3296 83.0732 37.5078C82.5717 37.6891 82.0268 37.7181 81.5163 37.6293C81.0033 37.5423 80.5182 37.3508 80.0784 37.0898C79.8669 36.9647 79.7962 36.6922 79.9213 36.4802C80.0463 36.2687 80.3194 36.1986 80.5309 36.3231C80.5393 36.3279 80.5484 36.334 80.5563 36.3394Z" fill="#232323"/>
<path d="M82.6475 49.4483C80.897 49.1567 79.3181 48.7299 77.8961 48.1597C82.1069 44.9201 81.2839 38.7694 81.2839 38.7694C80.9499 38.8426 80.6412 38.8752 80.3558 38.8752C79.2259 38.8752 78.4626 38.3634 77.9773 37.8418C78.0861 37.9107 78.2024 37.9704 78.3297 38.0147C78.5222 38.083 78.735 38.1315 78.9528 38.1315C79.026 38.1315 79.0992 38.126 79.1724 38.1143C79.7173 38.0417 80.1811 37.6782 80.4671 37.2957C80.7986 37.4513 81.1504 37.5669 81.5164 37.629C81.6991 37.661 81.8867 37.6776 82.0749 37.6776C82.412 37.6776 82.7521 37.6241 83.0738 37.5079C83.5763 37.3295 84.0167 36.9894 84.3199 36.5723C84.6281 36.1553 84.8107 35.678 84.9227 35.202C84.9547 35.0666 84.8766 34.927 84.7412 34.8852C84.7154 34.8772 84.689 34.8735 84.6631 34.8735C84.5487 34.8735 84.4435 34.9473 84.4085 35.0623L84.4054 35.0709C84.2787 35.4855 84.0942 35.8761 83.8309 36.1873C83.5695 36.4998 83.2294 36.7236 82.8523 36.8313C82.6592 36.8873 82.4569 36.9137 82.252 36.9137C82.0583 36.9137 81.8627 36.8897 81.6708 36.8436C81.3952 36.7784 81.1271 36.672 80.8743 36.5342C80.8841 36.4998 80.8933 36.4647 80.9013 36.4296C80.969 36.1479 80.9653 35.8515 80.9106 35.5765C81.1597 35.6713 81.3983 35.7162 81.6247 35.7162C83.1439 35.7162 84.0856 33.6907 83.7061 31.3411C84.5961 31.875 85.2665 32.6156 85.6952 33.548C86.7328 35.8096 86.0999 38.6218 84.9774 40.1213C84.6533 40.5537 84.4423 41.0525 84.3679 41.5624C83.9386 44.4889 83.3672 47.1338 82.6684 49.4323C82.6611 49.4378 82.6543 49.4427 82.6475 49.4483Z" fill="#BDBDBD"/>
<path d="M82.4568 49.718L79.0864 48.8932C79.0864 48.8932 79.0659 48.9665 79.0243 49.1024C78.4813 48.9268 77.9531 48.7325 77.4424 48.5178C77.5293 48.4377 77.6236 48.3608 77.7254 48.2882C77.7831 48.246 77.8402 48.2031 77.896 48.1597C79.3185 48.73 80.8966 49.157 82.6474 49.4481C82.5617 49.5163 82.4947 49.6088 82.4568 49.718ZM82.6685 49.4325C83.3673 47.1338 83.9382 44.4888 84.3677 41.5627C84.4428 41.0526 84.6538 40.5536 84.9771 40.121C86.0998 38.6223 86.7328 35.8097 85.6951 33.5483C85.2669 32.6155 84.596 31.8751 83.7061 31.3414C83.6714 31.1236 83.6248 30.9039 83.5665 30.6823C87.6339 32.7322 87.2441 37.9452 85.3848 40.427C85.118 40.7832 84.9368 41.1959 84.8722 41.6372C84.4514 44.5006 83.9028 47.0749 83.2239 49.3543C83.2016 49.3457 83.178 49.3388 83.1532 49.3332C83.1085 49.3227 83.0638 49.3177 83.0197 49.3177C82.8913 49.3177 82.7684 49.3593 82.6685 49.4325Z" fill="#232323"/>
<path d="M78.8029 37.3962C78.5481 37.3962 78.2697 37.2992 78.0195 37.1328C77.8599 37.0277 77.7118 36.898 77.5758 36.7511C79.1966 36.7115 79.3872 35.5664 79.3206 34.7641C79.3482 34.7893 79.3751 34.8151 79.4015 34.8421C79.673 35.1193 79.8894 35.4385 79.9732 35.7627C80.0306 35.9975 80.0277 36.2225 79.9445 36.4452C79.9359 36.4566 79.9284 36.4681 79.9215 36.4802C79.898 36.5198 79.8819 36.5611 79.8716 36.6036C79.8527 36.638 79.832 36.6725 79.8091 36.7069C79.7603 36.7872 79.6977 36.863 79.646 36.9445L79.5577 37.0427C79.5284 37.0759 79.4997 37.111 79.4658 37.1339C79.3413 37.2556 79.1926 37.3182 79.0388 37.3658C78.9636 37.3865 78.8844 37.3962 78.8029 37.3962Z" fill="#BDBDBD"/>
<path d="M78.9531 38.1318C78.7352 38.1318 78.5224 38.0825 78.3294 38.0147C78.2024 37.9706 78.0859 37.9103 77.9775 37.8413C77.4731 37.2993 77.2697 36.7457 77.2697 36.7457C77.345 36.7503 77.4181 36.7521 77.4882 36.7521C77.5178 36.7521 77.5468 36.7515 77.5757 36.7509C77.712 36.8981 77.8598 37.028 78.0198 37.1329C78.2697 37.2993 78.5479 37.3961 78.803 37.3961C78.8847 37.3961 78.9636 37.3863 79.0389 37.366C79.1931 37.3179 79.3415 37.2552 79.4656 37.1341C79.4998 37.1109 79.5288 37.0761 79.5578 37.0425L79.6459 36.9445C79.6981 36.8628 79.7601 36.7874 79.8094 36.7068C79.832 36.6721 79.8528 36.6379 79.872 36.6037C79.8279 36.788 79.9062 36.988 80.0784 37.0895C80.2041 37.1642 80.334 37.2332 80.4673 37.2958C80.181 37.6779 79.7172 38.0419 79.1723 38.1138C79.0992 38.126 79.0256 38.1318 78.9531 38.1318ZM80.8737 36.5341C80.7653 36.475 80.6586 36.4095 80.5566 36.3393C80.5485 36.3341 80.5392 36.3277 80.5311 36.3231C80.4604 36.2813 80.3821 36.261 80.305 36.261C80.1665 36.261 80.0302 36.3266 79.9444 36.4454C80.0279 36.2222 80.0308 35.9973 79.9734 35.7631C79.8899 35.4384 79.6731 35.1196 79.4012 34.8419C79.3752 34.8153 79.3479 34.7892 79.3207 34.7642C79.2841 34.3271 79.1717 33.9915 79.1717 33.9915L80.1375 35.1358C80.4041 35.3364 80.6627 35.4813 80.9108 35.5764C80.9653 35.8512 80.9688 36.148 80.901 36.4297C80.8934 36.4645 80.8841 36.4993 80.8737 36.5341Z" fill="#232323"/>
<path d="M82.0745 37.6777C81.8866 37.6777 81.6987 37.6614 81.5163 37.6293C81.1502 37.5671 80.7985 37.4517 80.4668 37.2964C80.3339 37.2336 80.204 37.1647 80.0784 37.0898C79.9062 36.9883 79.8276 36.7883 79.8711 36.6035C79.8814 36.5612 79.8977 36.5201 79.9213 36.4802C79.9285 36.4681 79.9358 36.4567 79.9442 36.4452C80.03 36.3268 80.166 36.2615 80.3049 36.2615C80.3823 36.2615 80.4596 36.2815 80.5309 36.3231C80.5393 36.328 80.5484 36.334 80.5563 36.3395C80.6584 36.4095 80.7647 36.4748 80.8734 36.5346C81.1266 36.6717 81.3948 36.7781 81.6709 36.8433C81.8625 36.8904 82.0582 36.914 82.2515 36.914C82.4564 36.914 82.6587 36.8874 82.8521 36.8318C83.2291 36.7237 83.5692 36.5002 83.8308 36.1878C84.0942 35.8761 84.2779 35.4858 84.4054 35.0713L84.4078 35.0629C84.4434 34.9475 84.5486 34.8737 84.6628 34.8737C84.6887 34.8737 84.7153 34.878 84.7413 34.8858C84.876 34.9269 84.9546 35.0665 84.9225 35.2024C84.8102 35.6785 84.6283 36.1558 84.3202 36.5727C84.0163 36.9895 83.5759 37.3297 83.0732 37.5079C82.7518 37.6245 82.4116 37.6777 82.0745 37.6777Z" fill="#232323"/>
<path d="M53.4891 105.425C51.9083 105.425 50.0419 104.476 49.0711 101.763C48.4933 100.148 48.4355 98.3739 48.903 96.6312L50.4617 90.8169L43.4617 90.9722L41.8995 92.3261L36.871 99.4805C36.0916 100.589 34.9015 101.337 33.6056 101.531C32.853 101.644 32.0607 101.632 31.25 101.496C29.5027 101.203 27.8548 100.292 26.61 98.9301C23.1171 95.1084 18.7706 90.3525 22.8185 84.5276C22.8287 84.513 22.8396 84.4987 22.8511 84.4848C22.8844 84.4451 26.174 80.6428 31.5113 84.3016L33.3307 82.1571C30.9177 82.3481 28.7909 81.6868 27.4539 80.283C26.3803 79.1556 25.3202 77.0223 26.3653 73.2601C26.7601 71.8382 27.7172 70.6619 28.991 70.0327C30.0606 69.504 31.1865 69.4354 32.271 69.8278C32.6448 69.5044 33.3154 69.0746 34.1819 69.1663C35.3153 69.2856 36.3536 70.2467 37.2713 72.0241C38.8029 72.4195 40.2201 72.286 41.5822 71.6167C38.7761 66.0402 36.8884 60.4964 41.026 57.2085C41.2832 57.0039 41.6573 57.0469 41.8615 57.3039C42.0657 57.5609 42.0229 57.9347 41.7656 58.1393C38.3707 60.8375 39.7651 65.4687 42.9035 71.5922C43.0469 71.8722 42.9477 72.2154 42.6773 72.3753C40.8208 73.4738 38.807 73.7164 36.6917 73.0977C36.5313 73.0508 36.3984 72.9387 36.3247 72.7889C35.5939 71.298 34.7917 70.4319 34.0656 70.35C33.3909 70.2733 32.8806 70.893 32.8754 70.8994C32.7035 71.1118 32.4053 71.1832 32.1579 71.0673C31.2813 70.6555 30.3932 70.6663 29.5179 71.0985C28.5469 71.5783 27.8154 72.482 27.511 73.5785C26.8019 76.1311 27.0798 78.1659 28.3152 79.4631C29.6518 80.8667 32.0322 81.3478 34.6816 80.7498C34.9314 80.694 35.1885 80.8028 35.3211 81.0216C35.4536 81.2404 35.4315 81.5194 35.2661 81.7144L32.0635 85.4888C31.8596 85.7283 31.5045 85.7687 31.2531 85.5798C26.7075 82.1707 24.0301 84.9496 23.7763 85.2329C20.5581 89.8944 23.4168 93.6737 27.4879 98.1279C28.5541 99.2947 29.96 100.074 31.4468 100.323C32.1338 100.439 32.8007 100.449 33.4293 100.355C34.4051 100.209 35.3048 99.6405 35.898 98.7966L40.9689 91.5827C40.9964 91.543 41.029 91.5069 41.0658 91.4754L42.8451 89.9332C42.9497 89.8425 43.0826 89.7912 43.2212 89.7881L51.2279 89.6104C51.414 89.6002 51.5935 89.6903 51.7085 89.8377C51.8242 89.9848 51.8642 90.1778 51.8153 90.3586L50.0508 96.9391C49.6465 98.4473 49.6948 99.9769 50.191 101.362C50.8994 103.342 52.2553 104.409 53.82 104.215C55.34 104.028 57.1026 102.533 57.3817 99.6952C57.402 99.4907 57.526 99.3113 57.7103 99.2202C57.8939 99.1292 58.1128 99.1397 58.2875 99.2484C61.1294 101.014 63.9464 101.883 66.6583 101.835C68.6279 101.799 70.477 100.791 71.6028 99.1376C78.0184 89.7185 78.9319 77.8513 74.3959 62.8578C74.3261 62.6276 74.4018 62.3783 74.5873 62.2263C80.6481 57.2514 82.4226 49.8519 82.4399 49.778C82.5139 49.4584 82.8341 49.2598 83.1531 49.3331C83.4733 49.4077 83.6725 49.7267 83.5979 50.0469C83.5252 50.3606 81.7691 57.6748 75.6469 62.89C77.7906 70.0891 78.6856 76.4093 78.3815 82.2012C78.0339 88.833 76.1377 94.592 72.5855 99.807C71.2427 101.779 69.0352 102.981 66.6798 103.024C63.9791 103.074 61.2082 102.296 58.4246 100.713C57.8755 103.254 56.1307 105.128 53.9655 105.395C53.8111 105.415 53.6513 105.425 53.4891 105.425Z" fill="#232323"/>
<path d="M43.2172 61.7368C43.448 62.8 43.7079 63.8608 43.9895 64.9105C44.2738 65.9593 44.5837 67.0012 44.9499 68.009L44.9503 68.0109C45.0387 68.2541 44.913 68.5229 44.6702 68.611C44.427 68.6994 44.1586 68.5737 44.0702 68.3305C44.0655 68.3177 44.0612 68.3041 44.0574 68.2913C43.7715 67.2134 43.5527 66.1339 43.3591 65.0513C43.1691 63.9679 43.0035 62.8853 42.8661 61.7949C42.8541 61.6976 42.9232 61.6084 43.0205 61.5963C43.1128 61.5843 43.1974 61.6456 43.2168 61.734L43.2172 61.7368Z" fill="#232323"/>
<path d="M34.8125 81.7977C34.7025 81.7977 34.5922 81.7587 34.5035 81.6807C34.3096 81.5104 34.2904 81.2146 34.4615 81.0207L35.1864 80.1968C36.0183 79.2516 37.1059 78.6 38.3315 78.3127L45.8278 76.5547C46.0791 76.4962 46.3311 76.6518 46.39 76.9035C46.4492 77.1551 46.2928 77.4068 46.0415 77.4657L38.5449 79.2237C37.5099 79.4661 36.5915 80.0166 35.8888 80.8146L35.1636 81.6388C35.0712 81.744 34.9421 81.7977 34.8125 81.7977Z" fill="#232323"/>
<path d="M42.5484 78.2723C42.5228 78.2723 42.4965 78.2702 42.4698 78.2657C42.2152 78.2229 42.0437 77.9813 42.0865 77.7267C42.6743 74.24 41.9396 72.038 41.9322 72.0162C41.8484 71.7722 41.9781 71.5063 42.2215 71.4218C42.466 71.3369 42.7311 71.466 42.8163 71.7097C42.8503 71.8072 43.6398 74.1401 43.0092 77.8824C42.9703 78.1107 42.7725 78.2723 42.5484 78.2723Z" fill="#232323"/>
<path d="M34.2892 72.9543C34.4152 73.1344 34.5331 73.3229 34.6351 73.5244C34.7387 73.729 34.828 73.9253 34.8861 74.1955C34.9296 74.4554 34.9184 74.7353 34.8335 74.9983C34.7428 75.2579 34.5926 75.495 34.3989 75.6918C34.2029 75.8864 33.9589 76.0298 33.6939 76.1239C33.4289 76.2221 33.1309 76.2401 32.8449 76.196C32.6994 76.1769 32.5635 76.1267 32.4276 76.075C32.3604 76.0485 32.3002 76.0098 32.2377 75.9748L32.1453 75.9204C32.1164 75.9024 32.0964 75.8854 32.0716 75.8674L31.7882 75.6551C31.6968 75.5773 31.6085 75.4933 31.5208 75.4108C31.1793 75.0676 30.879 74.6351 30.7315 74.1336C30.579 73.6338 30.5933 73.098 30.7132 72.6261C30.9595 71.6737 31.495 70.9185 32.0505 70.2304C32.2126 70.0293 32.5071 69.998 32.7083 70.1601C32.9094 70.3225 32.9407 70.6171 32.7783 70.8182L32.7766 70.8203L32.7704 70.8277C32.2588 71.4539 31.8001 72.1392 31.6221 72.8476C31.5347 73.1993 31.529 73.5458 31.6295 73.8615C31.7281 74.1774 31.9302 74.4652 32.1976 74.7132L32.4055 74.8957L32.6345 75.0642C32.6532 75.0775 32.674 75.0948 32.6906 75.1043L32.7368 75.1291C32.7681 75.1441 32.7963 75.1668 32.8275 75.1804C32.8911 75.2042 32.9526 75.2355 33.0195 75.2443C33.2791 75.3129 33.59 75.2426 33.8329 75.0612C33.9525 74.9691 34.053 74.8526 34.1261 74.7187C34.1985 74.5838 34.2297 74.4306 34.2372 74.2675C34.2392 74.1143 34.1964 73.9036 34.1482 73.7106C34.0979 73.5142 34.0378 73.3151 33.9718 73.1154L33.9712 73.114C33.9402 73.0195 33.9912 72.918 34.0853 72.887C34.1628 72.8612 34.2447 72.8911 34.2892 72.9543Z" fill="#232323"/>
<path d="M33.9457 75.5817C34.1393 76.1664 34.1295 76.797 33.9596 77.3566C33.7904 77.9179 33.4734 78.4207 33.047 78.8074C32.6243 79.1927 32.0682 79.4621 31.4804 79.4771C31.1892 79.4862 30.8987 79.4315 30.6357 79.3259C30.3717 79.2205 30.1356 79.067 29.9277 78.89C29.8529 78.8261 29.8441 78.714 29.9076 78.6389C29.9681 78.5682 30.0717 78.5563 30.1458 78.609L30.1485 78.611C30.5396 78.8896 31.0023 79.0374 31.4447 78.9776C31.8867 78.9243 32.2924 78.6803 32.5948 78.3467C32.8992 78.0134 33.1082 77.5927 33.1934 77.1609C33.2801 76.7287 33.2369 76.2881 33.0698 75.9099C32.9648 75.6734 33.0718 75.3965 33.3083 75.2919C33.5451 75.1869 33.8217 75.2939 33.9263 75.5304C33.9328 75.5443 33.9379 75.5583 33.9426 75.5722L33.9457 75.5817Z" fill="#232323"/>
<path d="M33.1575 101.453C32.9726 101.453 32.7973 101.343 32.7236 101.161C32.6267 100.921 32.7423 100.649 32.9818 100.551C34.0802 100.107 34.6792 99.4336 34.8121 98.4945C35.3625 94.6131 28.0468 87.5477 27.1661 86.8417C25.9409 86.1112 24.89 85.908 24.042 86.2379C22.8026 86.7194 22.3456 88.2126 22.3412 88.2272C22.2674 88.4746 22.0079 88.6163 21.7605 88.5436C21.5132 88.4705 21.3711 88.212 21.4432 87.9646C21.4663 87.8854 22.0259 86.0229 23.6951 85.3688C24.8333 84.9227 26.1703 85.1531 27.6693 86.0524C27.7556 86.1041 36.1389 93.5761 35.7644 98.3881C35.6554 99.79 34.8372 100.81 33.3328 101.419C33.2753 101.442 33.2159 101.453 33.1575 101.453Z" fill="#232323"/>
<path d="M31.9425 84.7178C32.5268 85.292 33.0151 85.9338 33.4377 86.6018C33.8604 87.2705 34.2192 87.967 34.5386 88.675C34.5827 88.7729 34.5392 88.8881 34.4414 88.9322C34.352 88.9727 34.2474 88.939 34.1968 88.8578C33.7911 88.2116 33.3531 87.5895 32.8697 87.0163C32.3869 86.4442 31.8572 85.9209 31.2775 85.4905C31.0509 85.3223 31.0037 85.0022 31.1719 84.7756C31.3401 84.549 31.6605 84.5018 31.8867 84.6699C31.9051 84.6835 31.9224 84.6981 31.938 84.7138L31.9425 84.7178Z" fill="#232323"/>
<path d="M41.3566 92.4199C41.1887 92.4199 41.0396 92.3006 41.0073 92.1297C40.3352 88.55 38.7815 85.9305 36.5136 84.5541C34.8022 83.5154 33.2634 83.5379 33.2499 83.5372H33.242C33.0494 83.5372 32.8907 83.3836 32.886 83.1899C32.8812 82.9939 33.0358 82.8308 33.2319 82.8257C33.3012 82.823 34.9612 82.7931 36.8449 83.9228C38.5647 84.9536 40.8044 87.192 41.7068 91.9986C41.7432 92.1916 41.6158 92.3778 41.4228 92.4138C41.4004 92.4179 41.3786 92.4199 41.3566 92.4199Z" fill="#232323"/>
<path d="M22.2712 92.284C22.1393 92.284 22.0085 92.2286 21.9158 92.1206C21.7476 91.9245 21.7704 91.6293 21.9664 91.4611L27.6567 86.5804C27.8528 86.4122 28.148 86.435 28.3162 86.6307C28.4844 86.8268 28.4619 87.1224 28.2659 87.2905L22.5756 92.1712C22.4872 92.247 22.3789 92.284 22.2712 92.284Z" fill="#232323"/>
<path d="M24.3743 95.8793C24.2448 95.8793 24.1161 95.826 24.0233 95.7213C23.8524 95.5273 23.8707 95.2318 24.0647 95.0609C24.0647 95.0609 25.6474 93.6641 27.2351 92.2677C28.0291 91.5688 28.8245 90.8706 29.4238 90.347C30.5674 89.3478 30.5668 89.3471 30.7743 89.361L30.7441 89.8279L30.3925 90.136L30.7444 89.8279L31.0166 90.2074C30.789 90.3827 27.1046 93.6257 24.6838 95.7625C24.5948 95.8409 24.4844 95.8793 24.3743 95.8793Z" fill="#232323"/>
<path d="M26.6894 98.6018C26.5508 98.6018 26.4139 98.5403 26.3215 98.4231C26.1618 98.2203 26.1968 97.9261 26.3996 97.7664L32.5387 92.9336C32.7416 92.7739 33.0358 92.8086 33.1955 93.0117C33.3555 93.2146 33.3202 93.5088 33.1174 93.6688L26.9782 98.5016C26.8926 98.5689 26.7907 98.6018 26.6894 98.6018Z" fill="#232323"/>
<path d="M30.0385 101.026C29.9114 101.026 29.785 100.975 29.6929 100.873C29.5186 100.683 29.5319 100.387 29.7225 100.213L34.4972 95.8498C34.6878 95.6751 34.9837 95.6884 35.158 95.8793C35.3323 96.0699 35.3187 96.3659 35.1281 96.5402L30.3538 100.903C30.2641 100.985 30.1509 101.026 30.0385 101.026Z" fill="#232323"/>
<path d="M51.1161 86.7973L52.0119 87.3695C52.3259 87.5332 52.624 87.7201 52.9385 87.8753L53.4152 88.0959C53.575 88.1679 53.7302 88.2474 53.8954 88.3055L54.3826 88.4937L54.626 88.5875L54.8763 88.6626C55.2102 88.7601 55.5381 88.8716 55.8795 88.9385C56.2174 89.0176 56.5523 89.1033 56.8957 89.1583L57.4053 89.2613L57.9213 89.3357L58.4384 89.4097L58.9604 89.4508C60.3543 89.5612 61.7691 89.4773 63.1719 89.284C64.5752 89.0843 65.9691 88.769 67.3441 88.3752L67.3451 88.3748C67.4396 88.348 67.5382 88.4027 67.5655 88.4971C67.5909 88.5872 67.5422 88.6809 67.4561 88.7132C66.1015 89.2147 64.7111 89.6387 63.2834 89.9286C61.8571 90.2238 60.3916 90.376 58.9156 90.343L58.3617 90.3281L57.8084 90.2775C57.6242 90.2581 57.4391 90.2455 57.2555 90.2201L56.7071 90.1219C56.5255 90.0825 56.3408 90.0573 56.1617 90.006L55.6267 89.8473C55.2669 89.7522 54.9265 89.5966 54.5807 89.4634C53.2077 88.8984 51.9477 88.0796 50.8912 87.0736C50.82 87.0056 50.8176 86.8925 50.8852 86.8211C50.9449 86.7583 51.04 86.7487 51.1102 86.7939L51.1161 86.7973Z" fill="#232323"/>
<path d="M51.2083 90.7941C51.0121 90.7941 50.829 90.6694 50.7643 90.4727C50.6836 90.2273 50.8168 89.9627 51.062 89.8818L54.7187 88.6753C54.9639 88.5951 55.2286 88.7276 55.3097 88.9729C55.3905 89.2183 55.2573 89.4829 55.0121 89.5638L51.355 90.7703C51.3064 90.7862 51.2573 90.7941 51.2083 90.7941Z" fill="#232323"/>
<path d="M62.8585 99.0493C62.6887 98.9209 62.5221 98.7866 62.357 98.6484C62.2742 98.5798 62.1909 98.5111 62.1114 98.4384L61.8846 98.2097C61.7382 98.0531 61.5797 97.9036 61.4423 97.7378C61.3082 97.5696 61.1708 97.4021 61.0405 97.2299C60.5248 96.5361 60.1079 95.7675 59.8067 94.9592C59.5 94.1537 59.244 93.3315 59.0614 92.4919C58.8793 91.6503 58.7603 90.8053 58.7368 89.9247C58.7297 89.6664 58.9339 89.4514 59.1922 89.4446C59.4501 89.4378 59.6651 89.6416 59.6722 89.8999V89.9107C59.6929 90.6959 59.8044 91.5083 59.9757 92.2938C60.1474 93.0817 60.3817 93.857 60.696 94.5977L60.9464 95.1457C61.031 95.3272 61.1275 95.5029 61.2141 95.6836C61.2974 95.8667 61.3952 96.0407 61.4898 96.2177C61.5891 96.3914 61.6658 96.5802 61.7763 96.7474C62.1655 97.4551 62.6374 98.1075 63.1084 98.7958L63.115 98.805C63.171 98.8869 63.1498 98.9983 63.0684 99.0544C63.003 99.0989 62.9183 99.0945 62.8585 99.0493Z" fill="#232323"/>
<path d="M59.7198 101.088C59.5374 101.088 59.3821 100.948 59.366 100.763C59.0813 97.4626 60.9103 96.3529 60.9882 96.307C61.1577 96.2071 61.3757 96.2649 61.4752 96.4345C61.5738 96.6033 61.5176 96.8204 61.3499 96.92C61.2831 96.9608 59.8313 97.8802 60.075 100.702C60.0921 100.897 59.947 101.069 59.7512 101.086C59.7406 101.087 59.7304 101.088 59.7198 101.088Z" fill="#232323"/>
<path d="M57.6895 100.177L55.2802 98.1795C55.197 98.1109 55.1855 97.9882 55.2541 97.9053C55.3142 97.8326 55.416 97.8149 55.4961 97.8578L58.2572 99.3303C58.5072 99.4635 58.6015 99.7737 58.4683 100.023C58.3351 100.273 58.0249 100.367 57.7754 100.234C57.7448 100.218 57.7152 100.198 57.6895 100.177Z" fill="#232323"/>
<path d="M69.163 76.2868C68.3728 77.301 67.4868 78.0997 66.4836 78.6389C61.2845 79.8152 55.612 80.6744 49.6124 81.3132C48.2868 81.4555 47.0466 80.6336 46.6556 79.3579L46.1105 77.5823L43.9225 70.4525C43.7479 69.8885 43.8247 69.2763 44.1287 68.7712L45.2798 66.8636C45.5644 66.3907 46.0256 66.0493 46.5625 65.9188C52.4039 64.499 58.2612 63.5311 64.1349 63.0505C64.7521 63.0009 65.3535 63.1452 65.8694 63.4426C66.3142 63.6985 66.6971 64.0686 66.9673 64.5292C68.5754 67.2552 69.4491 70.4704 69.8197 74.0219C69.9031 74.8313 69.6631 75.6446 69.163 76.2868Z" fill="white"/>
<path d="M45.2794 66.8637H45.2815H45.2794ZM64.3733 63.5511C64.3073 63.5511 64.2414 63.5542 64.1755 63.5593C58.432 64.028 52.5469 64.9885 46.6834 66.4141C46.2832 66.5114 45.9309 66.771 45.7161 67.1269H45.7156L44.5656 69.0335C44.3354 69.4146 44.2782 69.8781 44.409 70.3035L47.1428 79.2091C47.4621 80.2501 48.4777 80.9222 49.5587 80.8073C55.9295 80.1285 61.4078 79.2614 66.302 78.1579C67.1822 77.673 68.0088 76.9385 68.7597 75.9743C69.1866 75.4262 69.3829 74.7514 69.3123 74.0746C68.9229 70.3406 68.0124 67.303 66.5291 64.7877C66.0775 64.0218 65.2467 63.5511 64.3733 63.5511ZM49.3182 81.8395C47.8875 81.8395 46.5958 80.9024 46.1678 79.5078L43.4346 70.6027C43.2188 69.8997 43.3131 69.136 43.6932 68.5071L44.8432 66.6005C45.1975 66.0134 45.7805 65.5844 46.4423 65.4237C52.3573 63.9853 58.296 63.016 64.0926 62.5437C65.4229 62.434 66.7243 63.1128 67.4067 64.2696C68.9662 66.9137 69.9216 70.0867 70.3264 73.969C70.4242 74.9091 70.1533 75.8437 69.5641 76.6008C68.7082 77.6995 67.7528 78.5364 66.7243 79.0885C66.6836 79.1102 66.6404 79.1265 66.5956 79.1367C61.6447 80.2565 56.1072 81.1345 49.6664 81.8208C49.55 81.8334 49.4336 81.8395 49.3182 81.8395Z" fill="#232323"/>
<path d="M65.9874 79.1953C65.9464 79.1953 65.9043 79.1895 65.8622 79.1773C65.6266 79.108 65.4914 78.8609 65.5607 78.6252C66.1845 76.5003 65.4414 70.8991 63.7172 67.6334C63.4173 67.0646 62.8064 66.7201 62.1658 66.7503C57.6428 66.977 52.2846 67.8002 45.7868 69.2675C45.3566 69.4155 45.0626 69.66 44.8883 70.016C44.478 70.8521 44.8695 72.0268 44.8735 72.0387C44.9547 72.2703 44.8329 72.5243 44.6007 72.6055C44.3696 72.6862 44.1151 72.5644 44.0339 72.3322C44.0121 72.2708 43.5102 70.8046 44.0894 69.6244C44.373 69.0457 44.8562 68.6398 45.5254 68.4165C45.5393 68.4121 45.5537 68.4076 45.568 68.4047C52.1266 66.923 57.5418 66.0914 62.1213 65.8622C63.1079 65.8132 64.043 66.3448 64.5038 67.2181C66.2013 70.4328 67.1656 76.3161 66.4147 78.8756C66.3572 79.0696 66.18 79.1953 65.9874 79.1953Z" fill="#232323"/>
<path d="M60.3056 80.2819C60.1187 80.2819 59.9473 80.1575 59.8962 79.9682L58.5734 75.0957C58.4991 74.8204 58.2685 74.6148 57.9872 74.5715L52.8021 73.771C52.214 73.6803 51.7194 73.255 51.5421 72.6866L50.0648 67.9564C49.9946 67.7326 50.1199 67.4942 50.3437 67.4244C50.5671 67.3547 50.8055 67.4791 50.8752 67.7034L52.3526 72.4332C52.4342 72.6944 52.6617 72.8899 52.9315 72.9314L58.1167 73.7318C58.7298 73.8262 59.2307 74.2748 59.393 74.8733L60.7158 79.7457C60.7774 79.9723 60.6434 80.2054 60.4173 80.2669C60.3799 80.2771 60.3425 80.2819 60.3056 80.2819Z" fill="#232323"/>
<path d="M49.3187 80.8198C48.3306 80.8198 47.4383 80.1725 47.1425 79.2088L46.6808 77.7033C48.6916 78.1155 50.5122 78.32 52.1459 78.32C54.9685 78.32 57.2329 77.7105 58.9573 76.5111L59.7512 79.4353C56.6116 79.9616 53.2337 80.4155 49.5588 80.8072C49.4783 80.8157 49.3978 80.8198 49.3187 80.8198Z" fill="#BDBDBD"/>
<path d="M49.3147 81.329C48.1051 81.329 47.0174 80.5373 46.6558 79.3577L46.1108 77.582C46.3022 77.6243 46.4923 77.6648 46.6805 77.7031L47.1426 79.2087C47.4385 80.1724 48.3307 80.8197 49.3188 80.8197C49.398 80.8197 49.4782 80.8156 49.5588 80.8071C53.2338 80.4154 56.6115 79.9615 59.7514 79.4352L59.8852 79.9282C56.5958 80.4803 53.1613 80.9352 49.6124 81.313C49.5129 81.3239 49.4134 81.329 49.3147 81.329Z" fill="#232323"/>
<path d="M60.5925 79.2917L59.6842 75.944C61.8379 74.0576 62.9767 71.0637 63.1492 67.0154C63.3842 67.1668 63.5821 67.3774 63.7174 67.6329C65.3609 70.7466 66.1128 75.9818 65.6394 78.3051C64.0247 78.6584 62.346 78.9866 60.5925 79.2917Z" fill="#BDBDBD"/>
<path d="M60.7244 79.7846C60.7219 79.7717 60.719 79.7588 60.7156 79.7459L60.5923 79.292C62.3455 78.9869 64.0244 78.6587 65.6388 78.3053C65.6154 78.4192 65.5897 78.5258 65.5601 78.6254C65.5387 78.6994 65.5373 78.7745 65.5523 78.8452C63.9831 79.1853 62.3727 79.4975 60.7244 79.7846Z" fill="#232323"/>
<path d="M66.5927 77.9874C66.9599 75.1348 66.0268 70.1025 64.5038 67.2182C64.2653 66.7667 63.9007 66.4061 63.4669 66.1707L65.5239 63.8351C65.9337 64.0492 66.2866 64.3752 66.5292 64.7876C67.1729 65.8788 67.7084 67.0677 68.1406 68.37C67.9383 68.5444 67.7608 68.7498 67.6164 68.9802C67.2136 69.6235 67.1028 70.4106 67.3123 71.1403L67.6748 72.405C67.9154 73.2435 68.5383 73.8883 69.3219 74.1794C69.3626 74.8208 69.1653 75.4545 68.76 75.974C68.0923 76.8315 67.3647 77.5073 66.5927 77.9874ZM68.2144 70.8917L68.2113 70.8825C68.1432 70.644 68.1259 70.401 68.1579 70.1655C68.1676 70.2037 68.1778 70.2413 68.1889 70.2789L68.2144 70.8917Z" fill="#BDBDBD"/>
<path d="M66.4763 78.6404C66.5244 78.439 66.5627 78.2205 66.5929 77.9874C67.3647 77.5073 68.0925 76.8315 68.7604 75.974C69.165 75.4545 69.3624 74.8208 69.322 74.1794C69.4867 74.2409 69.659 74.2864 69.836 74.3146C69.8416 75.025 69.6028 75.7219 69.1629 76.2865C68.3732 77.3007 67.4869 78.0995 66.484 78.6387C66.4809 78.6394 66.4788 78.6397 66.4763 78.6404ZM68.1405 68.3701C67.7084 67.0679 67.1729 65.8788 66.5295 64.7874C66.2865 64.3752 65.9336 64.0489 65.5235 63.8351L65.8697 63.4423C66.3147 63.6985 66.6972 64.0683 66.9678 64.5291C67.3795 65.2272 67.7431 65.9566 68.0623 66.7161C68.0618 66.7161 68.0618 66.7161 68.0618 66.7161L68.0628 66.7181C68.2479 67.1579 68.4177 67.607 68.5737 68.0658C68.4198 68.1527 68.2745 68.2545 68.1405 68.3701Z" fill="#232323"/>
<path d="M65.5528 78.8451C65.5375 78.7744 65.5385 78.6993 65.5602 78.6253C65.5899 78.5257 65.616 78.419 65.6387 78.3052C66.1127 75.9819 65.3607 70.7464 63.717 67.6332C63.5822 67.3775 63.3837 67.1671 63.1487 67.0155C63.1561 66.8501 63.1615 66.6822 63.165 66.5129L63.4667 66.1707C63.9002 66.4062 64.2651 66.7667 64.5036 67.218C66.0263 70.1025 66.9596 75.135 66.5927 77.9875C66.5626 78.2206 66.5241 78.4391 66.4762 78.6405C66.17 78.7099 65.8619 78.7778 65.5528 78.8451Z" fill="#232323"/>
<path d="M59.8852 79.9283L59.7513 79.4353L58.9573 76.5115C59.2115 76.3348 59.4534 76.1462 59.6838 75.9444L60.5926 79.2919L60.7156 79.7458C60.7192 79.7587 60.7224 79.7716 60.7242 79.7846C60.4455 79.8331 60.1658 79.881 59.8852 79.9283Z" fill="#232323"/>
<path d="M77.4117 72.0501C74.8444 73.3275 72.2006 73.9381 69.4819 73.8844C68.9479 73.8756 68.4815 73.5233 68.3358 73.0109L68.297 72.8774L68.1889 70.2789C67.9875 69.5813 67.9796 68.8567 68.6981 68.7499C70.9453 68.4209 72.8054 67.5685 74.7949 66.8618C75.0829 66.7606 75.3693 66.6536 75.6506 66.5417C76.3337 66.2727 77.0972 66.6677 77.2677 67.3828L78.0542 70.6873C78.1859 71.2353 77.917 71.7993 77.4117 72.0501Z" fill="white"/>
<path d="M69.5193 68.2166H69.521H69.5193ZM75.3809 67.2568C75.187 67.2568 74.992 67.2901 74.8014 67.3568C73.2214 67.9068 71.4713 68.3511 69.6001 68.6775C69.1077 68.7632 68.6736 69.0547 68.4096 69.4767C68.1433 69.9013 68.0732 70.4005 68.2117 70.8823L68.5741 72.1465C68.7957 72.9178 69.5119 73.4387 70.3254 73.4121C72.387 73.3455 74.4317 72.8729 76.4018 72.0069C77.1814 71.6644 77.6053 70.8184 77.4092 69.9958L77.0773 68.6011C76.9615 68.1143 76.6556 67.7141 76.2175 67.4738C75.9547 67.3302 75.6692 67.2568 75.3809 67.2568ZM70.2666 74.3488C69.0642 74.3488 68.006 73.5603 67.6747 72.4047L67.3123 71.1401C67.1026 70.4107 67.2134 69.6234 67.6165 68.9803C68.0218 68.3334 68.686 67.8871 69.4396 67.7559C71.261 67.4382 72.9614 67.0063 74.4939 66.4727C75.2096 66.2234 76.0016 66.289 76.6664 66.653C77.3306 67.0171 77.8122 67.6479 77.9875 68.3847L78.3193 69.7791C78.6201 71.0416 77.9717 72.3388 76.7783 72.8634C74.698 73.7777 72.5369 74.2768 70.3554 74.3472C70.326 74.3482 70.296 74.3488 70.2666 74.3488Z" fill="#232323"/>
<path d="M70.2665 73.4133C69.7332 73.4133 69.2462 73.1789 68.9203 72.7947C73.7976 72.0339 74.7156 69.1599 74.7928 67.3597C74.7956 67.3586 74.7984 67.3581 74.8012 67.3569C74.9913 67.2904 75.1869 67.2574 75.3809 67.2574C75.6689 67.2574 75.9546 67.3301 76.2168 67.4738C76.6556 67.7142 76.9609 68.1145 77.0772 68.6014L77.4087 69.996C77.6049 70.8186 77.1812 71.6646 76.4013 72.0071C74.4311 72.8732 72.3865 73.3457 70.3252 73.4123C70.3057 73.413 70.2855 73.4133 70.2665 73.4133ZM77.0101 66.8773C76.9022 66.7945 76.787 66.7196 76.6663 66.6531C76.5287 66.5782 76.3856 66.5155 76.2397 66.4658C76.5377 66.5021 76.8138 66.6492 77.0101 66.8773Z" fill="#BDBDBD"/>
<path d="M69.8093 73.8878C69.7002 73.8878 69.591 73.8868 69.4818 73.8844C68.9479 73.8756 68.4815 73.5233 68.3358 73.0109L68.2969 72.8774C68.5113 72.8536 68.7195 72.8257 68.9203 72.7945C69.2467 73.1787 69.7333 73.4132 70.2667 73.4132C70.2859 73.4132 70.3056 73.4128 70.3252 73.4122C72.3867 73.3455 74.4314 72.873 76.4017 72.0069C77.1815 71.6644 77.6052 70.8184 77.4094 69.9958L77.0775 68.6011C76.9616 68.1143 76.656 67.7142 76.2172 67.474C75.9544 67.3299 75.6692 67.2568 75.3811 67.2568C75.187 67.2568 74.9918 67.29 74.8016 67.3564C74.7988 67.3575 74.796 67.3581 74.7931 67.3592C74.801 67.1825 74.7999 67.0149 74.7948 66.8618C75.0565 66.7696 75.3175 66.6728 75.5741 66.5715L76.0135 66.4685C76.0129 66.4657 76.0118 66.4629 76.0113 66.4595C76.0388 66.4579 76.0664 66.4567 76.094 66.4567C76.1435 66.4567 76.1919 66.4601 76.2397 66.4657C76.386 66.5152 76.5294 66.5777 76.6662 66.6531C76.7871 66.7195 76.9025 66.7943 77.0105 66.877C77.1309 67.0177 77.2215 67.1882 77.2676 67.3828L78.0542 70.6873C78.1858 71.2353 77.9169 71.7993 77.4117 72.0501C74.9473 73.2762 72.4132 73.8878 69.8093 73.8878Z" fill="#232323"/>
<path d="M61.9151 69.9745C62.3264 70.9703 61.9067 72.089 60.9774 72.4729C60.0476 72.8564 58.9611 72.3599 58.5497 71.3636C58.1384 70.3677 58.5586 69.249 59.4878 68.8656C60.4171 68.4817 61.5037 68.9782 61.9151 69.9745Z" fill="#22A7F0"/>
<path d="M58.5723 71.4177C58.5723 71.4168 58.5723 71.4164 58.5718 71.4155C58.5723 71.4164 58.5723 71.4168 58.5723 71.4177ZM58.5701 71.4123C58.5629 71.3962 58.5561 71.3805 58.5494 71.3639C58.1465 70.3875 58.5422 69.293 59.4338 68.8887C58.5422 69.293 58.1465 70.3875 58.5494 71.3639C58.5561 71.3805 58.5629 71.3962 58.5701 71.4123ZM59.4872 68.8658C59.4913 68.864 59.4953 68.8627 59.4989 68.8609C59.4953 68.8627 59.4913 68.864 59.4872 68.8658ZM59.5097 68.8568C59.5375 68.8456 59.5649 68.8353 59.5931 68.8259C59.5649 68.8353 59.5371 68.8456 59.5097 68.8568ZM59.5931 68.8259C59.5981 68.8241 59.6035 68.8227 59.608 68.8209C59.6035 68.8227 59.5981 68.8241 59.5931 68.8259ZM59.6093 68.8205C59.6106 68.8201 59.612 68.8201 59.6133 68.8196C59.612 68.8201 59.6106 68.8201 59.6093 68.8205ZM59.6165 68.8183C59.6174 68.8183 59.6174 68.8178 59.6183 68.8178C59.6174 68.8178 59.6174 68.8183 59.6165 68.8183Z" fill="white"/>
<path d="M59.146 72.1696C58.9082 71.9752 58.7083 71.7212 58.5727 71.4176C58.5722 71.4167 58.5722 71.4162 58.5718 71.4153C58.5713 71.4144 58.5708 71.413 58.5704 71.4121C58.563 71.3959 58.5565 71.3801 58.5496 71.3639C58.1465 70.3876 58.5426 69.2932 59.4338 68.8888C59.4514 68.8809 59.4695 68.873 59.4875 68.8656C59.4912 68.8638 59.4954 68.8624 59.4991 68.861C59.5023 68.8596 59.5065 68.8582 59.5097 68.8568C59.537 68.8457 59.5653 68.8351 59.5935 68.8258C59.5986 68.824 59.6037 68.8226 59.6083 68.8207C59.6088 68.8207 59.6088 68.8207 59.6092 68.8203C59.6106 68.8198 59.612 68.8198 59.6134 68.8194C59.6143 68.8189 59.6157 68.8184 59.6166 68.818C59.6176 68.818 59.6176 68.8175 59.6185 68.8175C59.7902 68.7624 59.9665 68.7356 60.1409 68.7356C60.8697 68.7356 61.5786 69.1956 61.9016 69.9461C61.5629 69.6689 61.1464 69.5135 60.723 69.5135C60.5042 69.5135 60.2834 69.5551 60.0706 69.643C59.1414 70.0266 58.7212 71.1455 59.1331 72.1413C59.1368 72.151 59.1419 72.1603 59.146 72.1696Z" fill="#91D3F8"/>
<path d="M60.1411 69.1611C59.9754 69.1611 59.8091 69.1924 59.6494 69.2585C58.9381 69.5521 58.6206 70.424 58.9419 71.2019C59.0997 71.5845 59.3849 71.8851 59.745 72.0499C60.0953 72.2096 60.4755 72.2204 60.8145 72.0809C61.5259 71.7868 61.8434 70.9148 61.5221 70.137C61.273 69.5334 60.712 69.1611 60.1411 69.1611ZM60.3214 73.0282C60.0077 73.0282 59.6925 72.9594 59.3924 72.8222C58.8356 72.5683 58.3972 72.108 58.157 71.5259C57.6569 70.3154 58.1809 68.9457 59.3254 68.4731C60.4694 68.0006 61.8073 68.6015 62.3075 69.8129C62.8071 71.0234 62.2831 72.3932 61.1391 72.8657C60.8759 72.9743 60.5991 73.0282 60.3214 73.0282Z" fill="#232323"/>
<path d="M75.1482 63.1155L73.262 63.6058C73.1658 63.631 73.0674 63.573 73.0423 63.4768C73.022 63.3987 73.0565 63.3189 73.1221 63.2784L74.7809 62.2552C75.0034 62.118 75.2947 62.1874 75.4319 62.4094C75.5691 62.6318 75.4997 62.9231 75.2778 63.0603C75.2373 63.0855 75.192 63.1041 75.1482 63.1155Z" fill="#232323"/>
<path d="M80.303 75.6385C79.7835 75.6385 79.2664 75.5417 78.7781 75.3504C78.4299 75.2138 78.0474 75.0623 77.7534 74.9417C77.1996 74.714 76.8333 74.5635 76.9654 74.1052C77.0302 73.8816 77.2606 73.687 77.5777 73.7468C77.6686 73.7641 77.7496 73.8045 77.815 73.8612C77.9546 73.9228 78.3003 74.0685 79.1499 74.4015C79.7025 74.6179 80.3036 74.6746 80.8879 74.5649C82.4053 74.2809 83.9252 73.7723 85.4047 73.0526C86.3845 72.5763 86.9103 71.4503 86.6549 70.3753L84.5338 61.445C84.3507 60.6725 83.8524 59.9998 83.1678 59.5986L82.249 59.0611C81.7731 58.782 81.2037 58.734 80.6873 58.929L78.4635 59.7674C78.2 59.8671 77.906 59.7338 77.8069 59.4703C77.7073 59.2068 77.8406 58.9134 78.1041 58.8138L80.3273 57.9753C81.1333 57.6707 82.021 57.7467 82.7641 58.1815L83.6829 58.7191C84.6067 59.2598 85.2782 60.1674 85.5261 61.2095L87.6465 70.1398C88.0116 71.6756 87.256 73.286 85.8507 73.9693C84.289 74.7286 82.6825 75.2661 81.0754 75.5668C80.8194 75.6147 80.5609 75.6385 80.303 75.6385Z" fill="#232323"/>
<path d="M84.5442 60.9333C84.5357 60.9285 84.4957 60.9115 84.4666 60.9006C84.4351 60.8879 84.4018 60.8763 84.3678 60.8654C84.2999 60.843 84.229 60.823 84.1569 60.8066C84.0133 60.7739 83.8654 60.7491 83.7151 60.7382C83.4157 60.7133 83.1108 60.7363 82.812 60.7982C82.7368 60.8121 82.6623 60.8303 82.5889 60.8533L82.478 60.8842L82.3592 60.9267L81.8828 61.1L80.9276 61.4479L79.9718 61.7952C79.933 61.8097 79.89 61.8243 79.8549 61.8394L79.7536 61.8825C79.6852 61.9109 79.6227 61.9497 79.5579 61.9849C79.4336 62.0643 79.3148 62.1528 79.2106 62.2588C78.7887 62.6777 78.5754 63.3128 78.6839 63.9177L80.2282 71.9525L78.2475 64.005C78.0735 63.2698 78.2887 62.451 78.8051 61.8782C78.933 61.7334 79.0809 61.6079 79.2391 61.4958C79.3203 61.4449 79.4015 61.3891 79.4882 61.3467L79.6191 61.2824C79.6615 61.2618 79.6985 61.2479 79.7391 61.2297L80.6852 60.826L81.6337 60.4218L82.1077 60.2193L82.2277 60.169L82.3604 60.1236C82.4489 60.0915 82.5386 60.0648 82.6302 60.0411C82.9938 59.9448 83.3738 59.8945 83.7557 59.9054C83.9466 59.909 84.1375 59.9296 84.3284 59.9618C84.4236 59.9787 84.5187 59.9993 84.6139 60.0254C84.6618 60.0375 84.7097 60.0515 84.7581 60.0672C84.8103 60.0848 84.8497 60.0969 84.9194 60.1266L84.9363 60.1339C85.163 60.2303 85.2691 60.4921 85.1727 60.7188C85.077 60.9454 84.8151 61.0515 84.5884 60.9551C84.5733 60.9485 84.5581 60.9412 84.5442 60.9333Z" fill="#232323"/>
<path d="M69.0435 67.8567C68.9118 67.4724 68.7714 67.097 68.6221 66.7307C73.0923 66.6611 70.2041 61.7665 70.2041 61.7665C75.5516 58.3887 78.1437 51.739 78.8683 49.5847C79.9319 49.929 81.0637 50.207 82.2619 50.4162C81.6855 52.3254 79.6058 58.1067 74.5873 62.2261C74.5015 62.2966 74.4392 62.3877 74.4034 62.4882L73.1217 63.2785C73.0565 63.3191 73.0218 63.3984 73.0424 63.4772C73.0635 63.5582 73.1364 63.6117 73.2163 63.6117C73.231 63.6117 73.2463 63.61 73.2616 63.6059L74.5215 63.2785C74.8271 64.3081 75.1074 65.3247 75.3612 66.324C75.068 66.3257 74.7748 66.3753 74.4933 66.4732C72.9613 67.007 71.2607 67.4384 69.439 67.7561C69.3038 67.7795 69.1716 67.8132 69.0435 67.8567Z" fill="#BDBDBD"/>
<path d="M82.262 50.4164C81.0638 50.2068 79.9321 49.9291 78.868 49.5848C78.9363 49.3823 78.9875 49.2193 79.0234 49.1028C80.0915 49.4483 81.2197 49.7201 82.4026 49.9238C82.3738 50.0326 82.3273 50.1998 82.262 50.4164Z" fill="#232323"/>
<path d="M82.4027 49.9238C81.2197 49.7195 80.0921 49.448 79.0239 49.103C79.0657 48.9663 79.0864 48.8933 79.0864 48.8933L82.4569 49.7183C82.4504 49.7377 82.4445 49.7572 82.4398 49.7778C82.4386 49.7837 82.4268 49.8337 82.4027 49.9238Z" fill="#232323"/>
<path d="M75.9946 66.396C75.792 66.3481 75.5841 66.324 75.3762 66.324C75.3715 66.324 75.3662 66.324 75.3608 66.324C75.1074 65.3243 74.8272 64.3079 74.5216 63.2786L75.0979 63.1287C75.423 64.225 75.7227 65.313 75.9946 66.396ZM74.4037 62.4879C74.4387 62.3878 74.5014 62.2966 74.5873 62.2261C79.6057 58.1068 81.6852 52.3249 82.2621 50.4166C82.3273 50.1998 82.3735 50.0328 82.4025 49.9238C82.4262 49.8338 82.438 49.784 82.4398 49.7781C82.4445 49.7574 82.4499 49.7378 82.4564 49.7183L82.6909 49.7757L83.0179 49.9131C83.0179 49.9131 82.0222 54.2042 78.8654 58.5267L78.1037 58.8139C77.8407 58.9128 77.7075 59.2072 77.807 59.4702C77.8401 59.5584 77.8952 59.6319 77.9633 59.687C77.2076 60.6003 76.35 61.4976 75.378 62.338C75.2868 62.2385 75.1589 62.1846 75.0286 62.1846C74.9439 62.1846 74.858 62.2077 74.781 62.2551L74.4037 62.4879Z" fill="#232323"/>
<path d="M68.7564 67.9712L68.0629 66.718C68.0629 66.7175 68.0624 66.717 68.0624 66.716C68.224 66.7261 68.3785 66.7312 68.5249 66.7312C68.5578 66.7312 68.5902 66.7312 68.6221 66.7302C68.7716 67.0964 68.9119 67.4723 69.0436 67.8562C68.9453 67.8892 68.8496 67.9277 68.7564 67.9712Z" fill="#232323"/>
<path d="M68.0633 66.7184L68.0618 66.7145C68.0625 66.716 68.0625 66.7176 68.0633 66.7184Z" fill="#232323"/>
<path d="M68.8554 68.1498L68.7565 67.9713C68.8494 67.9279 68.9455 67.8889 69.0438 67.8565C69.1718 67.8131 69.3042 67.779 69.4393 67.7559C71.2613 67.4379 72.9619 67.0067 74.4939 66.4728C74.7752 66.375 75.0685 66.3256 75.3613 66.3239C75.3667 66.3239 75.3717 66.3239 75.3766 66.3239C75.5848 66.3239 75.7924 66.3481 75.9951 66.3959C76.0006 66.4173 76.0061 66.4387 76.0111 66.4596C75.8908 66.4678 75.7694 66.4948 75.6507 66.5414C75.6249 66.5519 75.5996 66.5618 75.5744 66.5717L68.8554 68.1498Z" fill="#232323"/>
<path d="M75.5738 66.5719C75.5997 66.562 75.6249 66.5515 75.6502 66.5417C75.7694 66.495 75.8908 66.4681 76.0111 66.4598C76.0122 66.4626 76.0127 66.4659 76.0133 66.4686L75.5738 66.5719Z" fill="#232323"/>
<path d="M73.216 63.6117C73.1364 63.6117 73.0633 63.5582 73.042 63.4769C73.0219 63.3984 73.0562 63.3193 73.1217 63.2784L74.4034 62.4881L74.7808 62.2552C74.8583 62.2072 74.9439 62.1849 75.029 62.1849C75.1588 62.1849 75.287 62.2389 75.378 62.3381C75.2428 62.4548 75.1048 62.5716 74.9646 62.6861C75.0099 62.8339 75.0541 62.9812 75.0977 63.129L74.5217 63.2784L73.2618 63.6057C73.2466 63.61 73.2313 63.6117 73.216 63.6117Z" fill="#232323"/>
<path d="M77.9642 59.6871C77.895 59.6321 77.84 59.5584 77.8072 59.47C77.708 59.207 77.8412 58.9128 78.1042 58.8136L78.866 58.5262C78.5831 58.9145 78.2827 59.3016 77.9642 59.6871Z" fill="#232323"/>
<path d="M53.4596 104.238C52.0524 104.238 50.8509 103.194 50.1964 101.378C50.9626 102.007 51.6541 102.259 52.2681 102.259C54.3045 102.259 55.5021 99.504 55.8296 98.6356L57.3581 99.9025C57.0159 102.606 55.3025 104.032 53.8197 104.215C53.6983 104.23 53.5788 104.238 53.4596 104.238Z" fill="#BDBDBD"/>
<path d="M53.4654 104.832C51.949 104.832 50.4401 103.826 49.6302 101.563C49.5126 101.232 49.4181 100.896 49.3471 100.554L49.3506 100.558C49.6422 100.883 49.924 101.154 50.1965 101.378C50.8511 103.194 52.0524 104.238 53.4596 104.238C53.5786 104.238 53.6984 104.23 53.82 104.215C55.3027 104.032 57.0161 102.606 57.3583 99.9025L57.6894 100.177C57.7151 100.198 57.7448 100.218 57.775 100.234C57.8163 100.256 57.8593 100.272 57.9028 100.282C57.4222 103.131 55.4367 104.832 53.4654 104.832ZM58.813 100.25C58.6941 100.183 58.5747 100.115 58.4558 100.045C58.4593 100.04 58.4624 100.034 58.4655 100.029L58.813 100.25Z" fill="#232323"/>
<path d="M57.9032 100.282C57.8599 100.272 57.817 100.256 57.7755 100.234C57.7451 100.218 57.7155 100.198 57.6898 100.177L57.3586 99.9023L55.83 98.6354C55.891 98.4726 55.9219 98.3761 55.9219 98.3761L56.833 98.9884L58.4658 100.028C58.4627 100.034 58.4596 100.04 58.4561 100.045C58.2958 99.9506 58.135 99.8534 57.9734 99.7532C57.9557 99.9336 57.9323 100.11 57.9032 100.282Z" fill="#232323"/>
<path d="M59.2024 93.0828C57.6801 91.8603 55.8525 91.5195 54.2851 91.5195C53.0907 91.5195 52.048 91.7176 51.4086 91.875L51.7388 90.644L54.9138 89.5962C55.1476 89.6906 55.3827 89.7827 55.6268 89.8473L56.1617 90.0059C56.3411 90.0572 56.5254 90.0824 56.7074 90.1218L57.2557 90.22C57.4396 90.2454 57.6247 90.258 57.8085 90.2774L58.3618 90.328L58.7544 90.3386C58.7991 91.0714 58.9084 91.7829 59.0614 92.492C59.1047 92.69 59.1515 92.8867 59.2024 93.0828Z" fill="#BDBDBD"/>
<path d="M50.7422 92.064L51.2151 90.794C51.262 90.7933 51.3092 90.7855 51.3552 90.7703L51.7392 90.6439L51.4089 91.8748C50.9885 91.9784 50.7422 92.064 50.7422 92.064Z" fill="#232323"/>
<path d="M58.7549 90.3384L58.362 90.3279L57.809 90.2773C57.625 90.2579 57.4397 90.2454 57.2556 90.2199L56.7076 90.1217C56.5258 90.0823 56.3413 90.0571 56.1621 90.0058L55.6269 89.8472C55.383 89.7826 55.148 89.6905 54.9143 89.5961L55.0119 89.5638C55.1587 89.5152 55.2655 89.401 55.3103 89.2645L58.7389 89.9881C58.7425 90.1057 58.7482 90.2223 58.7549 90.3384Z" fill="#232323"/>
<path d="M51.2152 90.7942L51.3005 90.5641L51.9681 90.1877L53.9098 89.7229L55.2641 89.2547L55.3102 89.2646C55.2654 89.4011 55.1586 89.5153 55.012 89.5639L54.9141 89.5961L51.7388 90.644L51.3549 90.7704C51.3089 90.7857 51.2616 90.7935 51.2152 90.7942Z" fill="#232323"/>
<path d="M60.1377 94.0004C59.844 93.6501 59.5304 93.346 59.2027 93.0827C59.1517 92.8867 59.1047 92.69 59.0617 92.4918C58.9085 91.7827 58.7996 91.0713 58.7549 90.3384C58.7481 90.2222 58.7427 90.1057 58.7391 89.9881L59.2023 90.086L60.1377 94.0004Z" fill="#232323"/>
<path d="M32.5591 100.419C32.1966 100.419 31.8246 100.387 31.4468 100.323C31.3207 100.302 31.195 100.277 31.07 100.249L34.6867 96.9431C34.8291 97.4966 34.8797 98.0192 34.8121 98.4945C34.6969 99.3075 34.2328 99.9211 33.3977 100.36C33.1248 100.399 32.8449 100.419 32.5591 100.419Z" fill="#BDBDBD"/>
<path d="M32.5608 101.014C32.1871 101.014 31.7828 100.983 31.3482 100.91C31.0764 100.864 30.8087 100.803 30.546 100.727L31.0699 100.249C31.195 100.277 31.3207 100.302 31.4467 100.323C31.8246 100.387 32.1966 100.419 32.5591 100.419C32.8449 100.419 33.1248 100.399 33.3976 100.36C33.2679 100.428 33.1292 100.492 32.9818 100.551C32.7908 100.629 32.6787 100.818 32.6903 101.012C32.6475 101.013 32.6043 101.014 32.5608 101.014Z" fill="#232323"/>
<path d="M35.6279 99.1387C35.6982 98.9022 35.744 98.6518 35.7644 98.3881C35.8541 97.2367 35.4423 95.933 34.7625 94.6151C35.9068 94.417 36.8286 90.7381 36.8286 90.7381L39.494 87.7502C40.1168 88.8633 40.5941 90.1744 40.9132 91.6616L35.898 98.7965C35.814 98.9161 35.7237 99.0303 35.6279 99.1387Z" fill="#BDBDBD"/>
<path d="M34.737 100.56C35.1668 100.161 35.4641 99.6867 35.6279 99.1387C35.7237 99.0303 35.8141 98.9161 35.898 98.7965L40.9132 91.6615C40.9465 91.8158 40.9778 91.9717 41.0073 92.1297C41.0253 92.2245 41.079 92.3033 41.1521 92.355L36.3855 99.138C35.9585 99.7455 35.3904 100.236 34.737 100.56Z" fill="#232323"/>
<path d="M30.0415 99.9215C29.0881 99.5308 28.2098 98.9182 27.4878 98.1279C27.4831 98.1225 27.478 98.117 27.4732 98.1119L28.834 97.0407C28.8387 97.0407 28.8432 97.0407 28.8476 97.0407C30.123 97.0407 30.8348 96.211 31.2249 95.1587L33.1173 93.6689C33.1177 93.6685 33.118 93.6682 33.1187 93.6679C33.6222 94.4452 34.0547 95.2267 34.3605 95.9745L30.0415 99.9215Z" fill="#BDBDBD"/>
<path d="M29.6042 100.383C28.64 99.9534 27.7695 99.3181 27.0496 98.5295C27.0346 98.5132 27.02 98.4969 27.0051 98.4806L27.4732 98.1119C27.478 98.117 27.4831 98.1224 27.4878 98.1279C28.2098 98.9182 29.0881 99.5308 30.0415 99.9215L29.7225 100.213C29.6691 100.262 29.6297 100.32 29.6042 100.383Z" fill="#232323"/>
<path d="M26.844 97.4167C26.315 96.8259 25.8128 96.2459 25.349 95.6728C26.2107 96.2402 26.9561 96.6098 27.6013 96.8201L26.844 97.4167Z" fill="#BDBDBD"/>
<path d="M26.3758 97.7864C25.7782 97.1212 25.1979 96.4539 24.6624 95.7801C24.6695 95.7744 24.6767 95.7686 24.6838 95.7625C24.7966 95.6626 24.9121 95.561 25.03 95.457C25.1377 95.5314 25.2448 95.6038 25.3491 95.6728C25.8128 96.246 26.315 96.8259 26.844 97.4168L26.3996 97.7664C26.3914 97.7728 26.3836 97.7796 26.3758 97.7864ZM24.0926 95.0361C23.9407 94.8295 23.794 94.6222 23.653 94.414L23.6584 94.4191C23.8626 94.5859 24.062 94.7432 24.256 94.892C24.1793 94.96 24.1235 95.0089 24.0926 95.0361Z" fill="#232323"/>
<path d="M31.5727 93.6937C31.6766 92.9302 31.6824 92.1869 31.6634 91.651C31.984 92.0571 32.2972 92.4736 32.5951 92.8953C32.5757 92.9065 32.5568 92.9194 32.5386 92.9337L31.5727 93.6937ZM41.5132 91.0877C41.1325 89.4953 40.598 88.2164 39.9939 87.19L40.7431 86.3501L49.9361 86.0531L50.8863 86.8197C50.8863 86.8203 50.8859 86.8207 50.8855 86.821C50.8175 86.8923 50.8204 87.0055 50.8917 87.0735C51.7031 87.8461 52.6339 88.5083 53.6443 89.0298L51.5757 89.7124C51.4822 89.6471 51.3709 89.6098 51.256 89.6098C51.2465 89.6098 51.237 89.6098 51.2279 89.6104L43.2213 89.7881C43.0824 89.7912 42.9497 89.8425 42.8451 89.9332L41.5132 91.0877Z" fill="#BDBDBD"/>
<path d="M41.6583 91.7482C41.6128 91.5223 41.564 91.3021 41.5133 91.0877L42.8449 89.9332C42.9495 89.8425 43.0825 89.7912 43.2211 89.7882L51.228 89.6104C51.2372 89.6098 51.2468 89.6098 51.2559 89.6098C51.371 89.6098 51.482 89.6471 51.5758 89.7124L51.0618 89.8819C50.9033 89.9343 50.7915 90.0637 50.7539 90.2149L43.2339 90.3821L41.6583 91.7482Z" fill="#232323"/>
<path d="M32.6903 101.012C32.6787 100.818 32.7909 100.629 32.9818 100.551C33.1293 100.492 33.2679 100.428 33.3977 100.36C34.2328 99.9211 34.6969 99.3075 34.8121 98.4945C34.8797 98.0192 34.8291 97.4966 34.6867 96.9431L35.1281 96.5402C35.3187 96.3659 35.3323 96.0699 35.158 95.8793C35.0656 95.7784 34.9392 95.7271 34.8124 95.7271C34.6996 95.7271 34.5868 95.7676 34.4971 95.8498L34.3606 95.9745C34.0548 95.2267 33.6223 94.4452 33.1187 93.6678C33.2815 93.5384 33.3355 93.3223 33.2662 93.1371C33.5825 93.5781 33.8298 93.9271 33.875 94.0011C34.1438 94.4418 34.4105 94.6232 34.667 94.6232C34.699 94.6232 34.7309 94.6205 34.7625 94.6151C35.4424 95.933 35.8541 97.2367 35.7644 98.3881C35.7441 98.6518 35.6982 98.9022 35.6279 99.1387C35.4641 99.6867 35.1668 100.161 34.737 100.56C34.3558 100.748 33.9454 100.88 33.5173 100.944C33.2624 100.982 32.9866 101.007 32.6903 101.012ZM33.1235 92.9384C33.0385 92.8691 32.9336 92.8334 32.8276 92.8334C32.7477 92.8334 32.6675 92.8538 32.5952 92.8952C32.2972 92.4736 31.9839 92.057 31.6635 91.651C31.6469 91.1611 31.6098 90.8448 31.6098 90.8448C31.6098 90.8448 32.4626 92.019 33.1235 92.9384Z" fill="#232323"/>
<path d="M41.152 92.355C41.079 92.3034 41.0253 92.2245 41.0073 92.1298C40.9777 91.9718 40.9465 91.8158 40.9132 91.6616C40.5941 90.1744 40.1168 88.8633 39.494 87.7502L39.9938 87.19C40.5982 88.2164 41.1326 89.4952 41.5132 91.0877C41.5641 91.3021 41.6127 91.5223 41.6583 91.7482L41.4544 91.9245L41.152 92.355Z" fill="#232323"/>
<path d="M24.6624 95.7802C24.466 95.5331 24.2757 95.2851 24.0926 95.0361C24.1235 95.0089 24.1792 94.96 24.256 94.892C24.5237 95.0969 24.7809 95.2844 25.03 95.457C24.9121 95.561 24.7966 95.6626 24.6838 95.7625C24.6766 95.7686 24.6695 95.7744 24.6624 95.7802Z" fill="#232323"/>
<path d="M27.005 98.4806C26.7941 98.2492 26.5837 98.0181 26.3758 97.7864C26.3836 97.7796 26.3914 97.7728 26.3996 97.7664L26.844 97.4168L27.6013 96.8201C28.0614 96.9703 28.4704 97.039 28.834 97.0407L27.4732 98.1119L27.005 98.4806ZM31.2249 95.1587C31.3961 94.696 31.5055 94.1907 31.5728 93.6937L32.5387 92.9336C32.5567 92.9194 32.5758 92.9064 32.5951 92.8952C32.6675 92.8538 32.7477 92.8334 32.8275 92.8334C32.9335 92.8334 33.0385 92.8691 33.1235 92.9384C33.1724 93.0063 33.22 93.0726 33.2662 93.1371C33.3355 93.3223 33.2814 93.5384 33.1187 93.6678C33.118 93.6682 33.1177 93.6685 33.1173 93.6689L31.2249 95.1587Z" fill="#232323"/>
<path d="M30.546 100.727C30.2239 100.634 29.9093 100.519 29.6042 100.383C29.6297 100.32 29.6691 100.262 29.7225 100.213L30.0415 99.9215L34.3605 95.9745L34.4971 95.8498C34.5868 95.7676 34.6996 95.7271 34.8124 95.7271C34.9391 95.7271 35.0655 95.7784 35.1579 95.8793C35.3322 96.0699 35.3187 96.3659 35.1281 96.5402L34.6867 96.9431L31.0699 100.249L30.546 100.727Z" fill="#232323"/>
<path d="M53.6446 89.0296C52.6341 88.5081 51.7033 87.8459 50.8918 87.0733C50.8203 87.0053 50.8179 86.8922 50.8856 86.8208C50.886 86.8205 50.8864 86.8201 50.8869 86.8195L51.5466 87.3519L54.2358 88.8346L53.6446 89.0296Z" fill="#232323"/>
<path d="M51.1158 90.6685L51.2406 90.204L50.7538 90.2149C50.7914 90.0637 50.9028 89.9343 51.0619 89.8819L51.5758 89.7124L53.6444 89.0298L54.2356 88.8348L54.5249 88.9942L52.4467 89.9176L51.9682 90.1877L51.3892 90.3264L51.3007 90.5642L51.1158 90.6685Z" fill="#232323"/>
<path d="M51.3007 90.564L51.3895 90.3262L51.9685 90.1875L51.3007 90.564Z" fill="#232323"/>
<path d="M32.515 81.0019C30.7688 81.0019 29.2736 80.4696 28.3151 79.4632C27.928 79.0565 27.6346 78.5773 27.4364 78.0323C27.9821 78.2538 28.4623 78.3493 28.8837 78.3493C30.6863 78.3493 31.4209 76.6066 31.6982 75.5759C31.7276 75.6026 31.7578 75.6293 31.7882 75.6549L32.0717 75.8675C32.0963 75.8853 32.1165 75.9024 32.1453 75.9202L32.2377 75.9747C32.3003 76.0099 32.3602 76.0486 32.4277 76.075C32.5636 76.1266 32.6995 76.177 32.845 76.1958C32.9418 76.2109 33.0401 76.2187 33.1376 76.2187C33.1503 76.2187 33.163 76.2187 33.1756 76.2184C33.2506 76.5179 33.2574 76.8417 33.1934 77.1608C33.1082 77.5928 32.8994 78.0135 32.5947 78.3465C32.2925 78.6803 31.8868 78.9244 31.4449 78.9774C31.3792 78.9863 31.3131 78.9908 31.247 78.9908C30.8671 78.9908 30.482 78.848 30.1486 78.6108L30.1458 78.6091C30.115 78.5872 30.0791 78.5762 30.0431 78.5762C29.9928 78.5762 29.9428 78.5978 29.9076 78.6389C29.8442 78.7138 29.8528 78.8261 29.9278 78.8898C30.1356 79.0668 30.3717 79.2205 30.6357 79.3259C30.8797 79.4241 31.1474 79.4779 31.4175 79.4779C31.4387 79.4779 31.4596 79.4775 31.4805 79.4769C32.0682 79.4621 32.6245 79.1927 33.0469 78.8073C33.4724 78.4215 33.7891 77.9204 33.9585 77.36L38.846 76.7421C38.894 76.7425 38.9422 76.7428 38.9891 76.7428C40.3902 76.7428 41.4589 76.5203 42.2729 76.1913C42.2445 76.5788 42.2 76.9889 42.1353 77.4209L38.3315 78.3127C37.1057 78.6002 36.0182 79.2516 35.1864 80.1967L34.7037 80.7451C34.6962 80.7465 34.689 80.7482 34.6818 80.7499C33.9318 80.919 33.204 81.0019 32.515 81.0019Z" fill="#BDBDBD"/>
<path d="M32.5313 81.591C29.7629 81.591 27.3655 80.3553 26.7098 77.6817C26.9643 77.8227 27.2062 77.9386 27.4365 78.0324C27.6346 78.5774 27.9278 79.0564 28.3152 79.4631C29.2736 80.4695 30.7689 81.0019 32.515 81.0019C33.204 81.0019 33.9318 80.919 34.6816 80.7498C34.6891 80.7481 34.6962 80.7464 34.7037 80.745L34.4614 81.0206C34.3751 81.1188 34.3371 81.2428 34.3459 81.3637C34.2314 81.4004 34.103 81.4412 33.9637 81.4857H33.962C33.4789 81.5554 32.9998 81.591 32.5313 81.591Z" fill="#232323"/>
<path d="M43.112 77.1917C43.1817 76.6539 43.2217 76.1494 43.2405 75.6814C43.9298 75.2162 44.3278 74.6799 44.5545 74.2504L45.3 76.6785L43.112 77.1917Z" fill="#BDBDBD"/>
<path d="M34.3459 81.364C34.3368 81.2428 34.3752 81.1188 34.4613 81.0207L34.7036 80.7451L35.1865 80.1967C36.0181 79.2519 37.1055 78.6004 38.3314 78.3128L42.135 77.4208C42.1198 77.5214 42.1035 77.6237 42.0862 77.7268C42.0717 77.814 42.0822 77.8997 42.1122 77.976L37.1735 79.2331L34.9529 81.1708C34.9529 81.1708 34.7221 81.2439 34.3459 81.364ZM43.0321 77.7424C43.0621 77.555 43.0885 77.3716 43.1117 77.1918L45.2998 76.6789L45.438 77.1296L43.0321 77.7424Z" fill="#232323"/>
<path d="M42.1128 77.9758C42.0825 77.8992 42.0721 77.8139 42.0867 77.7265C42.1041 77.6234 42.1201 77.521 42.1354 77.4207C42.2002 76.9889 42.2444 76.5787 42.273 76.1911C42.6467 76.0399 42.9667 75.8661 43.2404 75.6812C43.2216 76.1496 43.1816 76.6542 43.1119 77.1916C43.0889 77.3713 43.0625 77.5548 43.0325 77.7422L42.1128 77.9758Z" fill="#232323"/>
<path d="M33.1377 76.2187C33.0399 76.2187 32.9417 76.2109 32.8449 76.196C32.6995 76.1769 32.5636 76.1266 32.4276 76.075C32.3604 76.0485 32.3002 76.0098 32.2377 75.9748L32.1453 75.9204C32.1164 75.9024 32.0964 75.8854 32.0716 75.8674L31.7882 75.6551C31.7576 75.6292 31.7277 75.6027 31.6982 75.5759C31.8144 75.1427 31.8501 74.8349 31.8501 74.8349L33.2346 75.3326C33.0508 75.4573 32.9767 75.6996 33.0698 75.9099C33.1136 76.0087 33.1486 76.112 33.1755 76.2184C33.1629 76.2187 33.1503 76.2187 33.1377 76.2187Z" fill="#232323"/>
<path d="M31.4175 79.4781C31.1474 79.4781 30.8797 79.424 30.6357 79.3258C30.3717 79.2205 30.1356 79.0669 29.9277 78.8899C29.8529 78.8261 29.8441 78.7139 29.9076 78.6388C29.943 78.5977 29.9929 78.5763 30.0432 78.5763C30.0792 78.5763 30.1149 78.5872 30.1458 78.6089L30.1485 78.611C30.4818 78.8481 30.8671 78.9908 31.247 78.9908C31.3132 78.9908 31.3791 78.9864 31.4447 78.9776C31.8867 78.9242 32.2924 78.6803 32.5948 78.3467C32.8992 78.0133 33.1082 77.5927 33.1934 77.1609C33.2573 76.8419 33.2505 76.5181 33.1754 76.2184C33.1486 76.112 33.1136 76.0088 33.0698 75.9099C32.9767 75.6996 33.0507 75.4573 33.2346 75.3326L33.8641 75.5589V77.3722L33.9586 77.36C33.789 77.9203 33.4724 78.4214 33.047 78.8074C32.6243 79.1927 32.0682 79.4621 31.4804 79.477C31.4596 79.4777 31.4386 79.4781 31.4175 79.4781Z" fill="#232323"/>
<path d="M45.4377 77.1299L45.2995 76.6788L44.5542 74.2511C44.7957 73.7949 44.8441 73.4599 44.8441 73.4599L45.7691 76.4722L45.5411 77.1037L45.4377 77.1299Z" fill="#232323"/>
<path d="M152.374 69.6059C151.552 69.6059 150.293 69.2977 148.598 68.6812C148.29 68.5784 147.93 68.4757 147.519 68.373C147.16 68.2188 146.697 68.0647 146.132 67.9106C141.92 66.6777 137.322 65.0337 132.339 62.9788C127.356 60.9239 124.864 58.9718 124.864 57.1224C124.864 55.9408 125.224 54.939 125.943 54.1171C130.515 49.9559 134.779 46.7965 138.735 44.6389C142.69 42.4299 147.314 40.3493 152.605 38.3971C153.376 38.1402 154.018 38.3714 154.532 39.0906C155.045 39.8099 155.328 40.4777 155.379 41.0942C154.044 42.0189 151.475 43.4316 147.673 45.3324C143.821 47.1818 140.533 48.9542 137.81 50.6494C135.139 52.2934 132.801 54.2198 130.798 56.4289C134.805 58.4837 138.632 60.2047 142.279 61.5918C145.927 62.9788 148.598 63.7494 150.293 63.9035C151.526 64.0063 152.503 64.3659 153.222 64.9824C153.992 65.5475 154.378 66.3181 154.378 67.2941C154.378 68.0647 154.223 68.6555 153.915 69.0665C153.607 69.4261 153.093 69.6059 152.374 69.6059ZM178.791 74.0753C177.969 73.9726 177.199 73.9212 176.48 73.9212C175.812 73.8698 175.349 73.8441 175.093 73.8441C174.887 73.7927 174.784 73.69 174.784 73.5359C174.425 71.892 174.168 70.4535 174.014 69.2206C173.86 67.9363 173.757 66.7547 173.705 65.6759C173.654 64.1347 173.526 62.6192 173.32 61.1294C173.166 59.5883 172.806 57.559 172.241 55.0418C169.365 55.5041 167.438 55.7353 166.462 55.7353C165.435 55.7353 164.664 55.5555 164.15 55.1959C163.636 54.7849 163.38 54.1428 163.38 53.2694C163.38 52.7557 163.662 52.4989 164.227 52.4989L166.539 52.2677C166.899 52.2163 168.543 52.0108 171.471 51.6512C171.368 50.1614 171.163 47.1047 170.854 42.4812C170.7 38.7824 170.469 35.8285 170.161 33.6195L160.528 34.4671C159.809 34.9295 159.244 35.1606 158.833 35.1606C158.217 34.6983 157.831 34.1075 157.677 33.3883C158.91 32.0526 161.864 30.9481 166.539 30.0748C171.265 29.2014 176.377 28.7648 181.874 28.7648C188.758 28.7648 194.665 29.5097 199.597 30.9995C204.529 32.4379 207.2 34.6726 207.611 37.7036C206.019 37.7036 204.478 37.5238 202.988 37.1642C201.498 36.8046 199.623 36.2652 197.363 35.5459C194.486 34.5699 191.84 33.825 189.425 33.3112C187.062 32.7975 184.391 32.5407 181.411 32.5407C179.511 32.5407 177.43 32.6948 175.17 33.003C175.17 37.7806 175.298 43.8169 175.555 51.1118L178.252 50.8806C186.472 50.2128 191.275 49.8789 192.662 49.8789C193.33 49.8789 193.792 49.9302 194.049 50.033C194.306 50.0844 194.511 50.1871 194.665 50.3412C194.717 51.8824 193.253 52.9869 190.273 53.6547C187.294 54.2712 182.567 54.7079 176.094 54.9647C176.351 57.482 176.839 60.7698 177.558 64.8283C178.226 68.6298 178.637 71.7122 178.791 74.0753ZM217.431 75.0771C216.25 75.0771 215.3 73.3561 214.58 69.9141C213.861 66.4208 213.399 63.4155 213.193 60.8983C212.988 58.381 212.705 54.3996 212.346 48.9542C212.294 48.0808 212.269 46.9506 212.269 45.5636C212.269 43.8169 212.397 42.6097 212.654 41.9418C212.962 41.274 213.45 40.94 214.118 40.94C214.683 40.94 215.12 41.0685 215.428 41.3253C215.788 41.5308 216.096 41.8904 216.353 42.4042L216.276 45.4865C216.276 48.7744 216.43 51.8824 216.738 54.8106C217.098 57.7388 217.637 61.6688 218.356 66.6006C218.767 68.7582 219.05 70.5306 219.204 71.9177C219.307 72.6369 219.178 73.3561 218.819 74.0753C218.459 74.7431 217.997 75.0771 217.431 75.0771ZM215.505 32.6948C214.375 32.6948 213.527 32.2581 212.962 31.3848C212.448 30.5114 212.191 29.4326 212.191 28.1483C212.191 27.5832 212.217 27.1722 212.269 26.9154C212.217 26.0934 212.68 25.6824 213.656 25.6824C214.375 25.6824 215.094 25.8622 215.813 26.2218C216.584 26.5301 216.815 26.7612 216.507 26.9154C217.021 28.251 217.277 29.3042 217.277 30.0748C217.277 30.7426 217.123 31.282 216.815 31.693C216.507 32.0526 216.07 32.3865 215.505 32.6948ZM233.436 75.3082C232.716 75.5137 232.305 75.6165 232.203 75.6165C231.792 75.6165 231.355 75.411 230.893 75C229.197 72.4827 227.964 68.0904 227.194 61.823C226.475 55.5555 226.115 50.1614 226.115 45.6406C226.115 44.9214 226.629 44.5618 227.656 44.5618C229.197 44.5618 229.968 45.4095 229.968 47.1047C229.968 47.5671 229.942 47.9524 229.891 48.2606C230.353 47.1818 231.227 46.0773 232.511 44.9471C233.795 43.8169 235.285 42.8665 236.98 42.0959C238.676 41.3253 240.397 40.94 242.143 40.94C247.64 40.94 251.647 43.3802 254.164 48.2606C256.682 53.0896 257.94 59.1002 257.94 66.2924C257.94 68.7582 257.683 70.7361 257.17 72.2259C256.656 73.6643 255.962 74.3835 255.089 74.3835C254.164 74.3835 253.702 74.101 253.702 73.5359C254.062 70.8131 254.241 68.1418 254.241 65.5218C254.241 58.8947 253.086 53.8859 250.774 50.4953C248.462 47.0534 245.405 45.3324 241.604 45.3324C239.754 45.3324 237.956 45.7947 236.21 46.7195C234.514 47.6442 233.127 48.9285 232.049 50.5724C231.021 52.2163 230.507 54.0914 230.507 56.1977C230.507 58.5608 230.636 60.6157 230.893 62.3624C231.15 64.109 231.561 66.2153 232.126 68.6812C232.742 71.0957 233.179 73.3047 233.436 75.3082ZM283.922 75C278.579 75 273.93 74.0753 269.974 72.2259C266.07 70.3251 264.118 67.0116 264.118 62.2853C264.118 60.59 264.631 58.9461 265.659 57.3536C266.686 55.761 268.202 54.4767 270.205 53.5006C272.209 52.4732 274.649 51.9594 277.526 51.9594C279.735 51.9594 281.61 52.0622 283.151 52.2677C284.692 52.4732 286.465 53.0383 288.468 53.963C290.472 54.8877 292.552 56.3518 294.71 58.3553C293.888 54.8106 292.655 51.7026 291.011 49.0312C289.367 46.3598 287.518 44.3049 285.463 42.8665C283.459 41.3767 281.482 40.6318 279.529 40.6318C278.605 40.6318 277.731 40.8116 276.909 41.1712C276.139 41.4795 275.188 41.9418 274.058 42.5583C272.774 43.3802 271.823 43.7912 271.207 43.7912C270.95 43.7912 270.719 43.7142 270.513 43.56C270.359 43.3546 270.282 43.1234 270.282 42.8665C270.282 40.8116 271.181 39.2191 272.979 38.0889C274.829 36.9587 277.063 36.445 279.683 36.5477C283.28 36.7532 286.567 38.2944 289.547 41.1712C292.527 43.9967 294.864 47.5157 296.559 51.7283C298.306 55.9408 299.179 60.0763 299.179 64.1347C299.179 64.8026 299.128 65.753 299.025 66.9859L296.559 66.8318C294.607 62.8761 292.09 60.0763 289.008 58.4324C285.977 56.7371 282.92 55.8894 279.838 55.8894C275.882 55.8894 273.056 56.4802 271.361 57.6618C269.666 58.8434 268.818 60.5643 268.818 62.8247C268.818 65.1879 270 67.0886 272.363 68.5271C274.726 69.9655 277.757 70.6847 281.456 70.6847C283.511 70.6847 285.155 70.582 286.388 70.3765C287.621 70.1196 288.905 69.7857 290.241 69.3747C291.319 69.0151 292.27 68.7582 293.092 68.6041C293.914 68.45 294.967 68.373 296.251 68.373C297.69 68.373 298.589 68.4757 298.948 68.6812C299.359 68.8867 299.565 69.349 299.565 70.0682C299.565 70.582 298.511 71.2241 296.405 71.9947C294.299 72.7653 291.936 73.4588 289.316 74.0753C286.696 74.6918 284.898 75 283.922 75ZM313.053 75.3082C312.334 75.5137 311.923 75.6165 311.82 75.6165C311.409 75.6165 310.972 75.411 310.51 75C308.815 72.4827 307.582 68.0904 306.811 61.823C306.092 55.5555 305.732 50.1614 305.732 45.6406C305.732 44.9214 306.246 44.5618 307.274 44.5618C308.815 44.5618 309.585 45.4095 309.585 47.1047C309.585 47.5671 309.56 47.9524 309.508 48.2606C309.971 47.1818 310.844 46.0773 312.128 44.9471C313.413 43.8169 314.902 42.8665 316.598 42.0959C318.293 41.3253 320.014 40.94 321.761 40.94C327.257 40.94 331.264 43.3802 333.782 48.2606C336.299 53.0896 337.558 59.1002 337.558 66.2924C337.558 68.7582 337.301 70.7361 336.787 72.2259C336.273 73.6643 335.58 74.3835 334.706 74.3835C333.782 74.3835 333.319 74.101 333.319 73.5359C333.679 70.8131 333.859 68.1418 333.859 65.5218C333.859 58.8947 332.703 53.8859 330.391 50.4953C328.079 47.0534 325.023 45.3324 321.221 45.3324C319.372 45.3324 317.574 45.7947 315.827 46.7195C314.132 47.6442 312.745 48.9285 311.666 50.5724C310.638 52.2163 310.125 54.0914 310.125 56.1977C310.125 58.5608 310.253 60.6157 310.51 62.3624C310.767 64.109 311.178 66.2153 311.743 68.6812C312.359 71.0957 312.796 73.3047 313.053 75.3082ZM362.691 75.0771C356.681 75.0771 352.006 73.7157 348.667 70.9929C345.379 68.2188 343.735 63.9549 343.735 58.2012C343.735 55.273 344.454 52.4989 345.893 49.8789C347.382 47.2075 349.36 45.0755 351.826 43.483C354.343 41.8391 357.04 41.0171 359.917 41.0171C362.845 41.0171 365.337 41.6593 367.392 42.9436C369.447 44.1765 370.474 45.9746 370.474 48.3377C370.474 49.9816 370.166 51.1632 369.55 51.8824C368.984 52.5502 368.342 52.8842 367.623 52.8842C367.623 50.4183 366.955 48.4147 365.62 46.8736C364.284 45.3324 362.383 44.5618 359.917 44.5618C357.451 44.5618 355.319 45.2297 353.521 46.5653C351.723 47.8496 350.336 49.5706 349.36 51.7283C348.436 53.8345 347.973 56.0436 347.973 58.3553C347.973 63.2357 349.617 66.5492 352.905 68.2959C356.244 70.0426 360.636 70.9159 366.082 70.9159C367.931 70.9159 370.346 70.8131 373.325 70.6077C373.428 70.6077 373.659 70.7104 374.019 70.9159C374.379 71.1214 374.661 71.2498 374.867 71.3012V71.7635C374.867 73.2533 373.557 74.178 370.937 74.5376C368.317 74.8973 365.568 75.0771 362.691 75.0771ZM396.161 75C392.873 75 389.842 74.3578 387.068 73.0735C384.294 71.7892 382.085 69.9655 380.441 67.6024C378.797 65.2392 377.975 62.5165 377.975 59.4341C377.975 55.9922 378.617 52.7814 379.901 49.8018C381.186 46.7708 383.061 44.3563 385.527 42.5583C388.044 40.7089 390.972 39.7842 394.311 39.7842C397.805 39.7842 400.45 40.9144 402.248 43.1748C404.046 45.3838 404.894 48.1836 404.791 51.5742C404.791 54.6051 403.584 56.9169 401.17 58.5094C398.806 60.102 395.775 60.8983 392.077 60.8983C391.512 60.8983 390.664 60.8469 389.534 60.7441C387.684 60.5386 386.374 60.2561 385.604 59.8965C384.833 59.5369 384.448 58.8177 384.448 57.7388C384.448 57.3792 384.551 57.1224 384.756 56.9683C384.962 56.7628 385.373 56.66 385.989 56.66C386.657 56.66 387.838 56.8141 389.534 57.1224C391.178 57.4306 392.642 57.5847 393.926 57.5847C398.652 57.5847 401.015 55.5298 401.015 51.42C401.015 48.9542 400.553 47.002 399.628 45.5636C398.755 44.1251 397.188 43.4059 394.928 43.4059C392.462 43.4059 390.253 44.0738 388.301 45.4095C386.349 46.6938 384.833 48.3891 383.754 50.4953C382.727 52.6016 382.213 54.8363 382.213 57.1994C382.213 61.2579 383.343 64.5971 385.604 67.2171C387.864 69.7857 391.357 71.07 396.084 71.07C396.649 71.07 397.599 71.0186 398.935 70.9159C399.5 70.8645 400.193 70.7104 401.015 70.4535C401.837 70.1967 402.428 70.0169 402.788 69.9141C404.997 69.1435 406.615 68.7582 407.642 68.7582C408.413 68.7582 409.004 68.9637 409.415 69.3747C408.131 71.3269 406.204 72.7653 403.635 73.69C401.118 74.5633 398.627 75 396.161 75ZM412.362 75C411.745 75 411.232 74.7431 410.821 74.2294C410.41 73.6643 410.204 73.0735 410.204 72.4571C410.204 71.3269 410.666 69.6316 411.591 67.3712C412.567 65.0594 413.518 63.0045 414.442 61.2065L426.849 27.3007C426.952 26.4787 427.054 25.8879 427.157 25.5283C427.517 23.2165 427.902 21.3415 428.313 19.903C428.775 18.4646 429.469 17.5656 430.393 17.206C431.113 17.3601 431.549 17.694 431.703 18.2077C431.858 18.6701 431.909 19.1581 431.858 19.6718C431.858 20.1342 431.858 20.4681 431.858 20.6736C431.858 22.6771 430.419 28.251 427.542 37.3953C424.717 46.5396 421.737 55.0932 418.603 63.0559C415.47 71.0186 413.389 75 412.362 75ZM436.448 70.4535C435.677 70.4535 435.164 70.2224 434.907 69.76C434.701 69.2977 434.599 68.6555 434.599 67.8335C434.804 67.2171 435.575 66.4979 436.91 65.6759C438.246 64.8539 440.275 63.7751 442.998 62.4394C446.8 60.59 449.985 58.869 452.553 57.2765C455.173 55.6839 457.074 54.0143 458.256 52.2677C452.502 50.3155 447.493 48.2606 443.229 46.103C439.017 43.9453 436.679 41.8648 436.217 39.8612C436.165 39.7071 436.14 39.4759 436.14 39.1677C436.14 38.654 436.268 38.243 436.525 37.9348C436.782 37.6265 437.167 37.4724 437.681 37.4724C438.554 37.4724 439.273 37.6522 439.839 38.0118C440.455 38.3714 441.123 38.9108 441.842 39.6301C443.024 40.7089 444.025 41.4281 444.847 41.7877C445.823 42.1987 447.288 42.9179 449.24 43.9453C452.014 45.3838 454.403 46.514 456.406 47.3359C458.41 48.1579 460.362 48.6973 462.263 48.9542C462.982 49.211 463.419 49.5706 463.573 50.033C463.778 50.444 463.855 50.9834 463.804 51.6512C463.701 53.6034 461.8 56.0692 458.101 59.0488C454.454 61.9771 450.37 64.6228 445.849 66.9859C441.38 69.2977 438.246 70.4535 436.448 70.4535Z" fill="black"/>
</svg>
